<svg width="27" height="27" viewBox="0 0 27 27" fill="none" xmlns="http://www.w3.org/2000/svg">
<rect width="27" height="27" rx="13.5" fill="white"/>
<path fill-rule="evenodd" clip-rule="evenodd" d="M16.7447 8.00299C18.3755 7.91139 20.1283 9.93563 20.7656 12.7659C21.4404 15.7702 20.6063 18.5364 18.9285 18.9485C17.6726 19.2508 16.3135 18.1975 15.3762 16.4297H11.6646C10.7461 18.1883 9.36829 19.2508 8.11233 18.9485C6.39711 18.5455 5.55356 15.7702 6.23778 12.7659C6.87513 9.93563 8.62784 7.91139 10.2587 8.00299H10.3337C11.0016 8.00326 11.6458 8.24465 12.1426 8.68079C12.3172 8.86217 12.5277 9.00689 12.7613 9.10611C12.995 9.20532 13.2469 9.25695 13.5017 9.25783C13.7671 9.25865 14.0297 9.20436 14.2721 9.09857C14.5145 8.99278 14.7311 8.83789 14.9076 8.64415C15.4002 8.22962 16.029 8.00205 16.6791 8.00299H16.7447ZM10.75 11C10.75 10.7239 10.5261 10.5 10.25 10.5H9.75C9.47386 10.5 9.25 10.7239 9.25 11L9.25 11.75H8.5C8.22386 11.75 8 11.9739 8 12.25V12.75C8 13.0261 8.22386 13.25 8.5 13.25H9.25L9.25 14C9.25 14.2761 9.47386 14.5 9.75 14.5H10.25C10.5261 14.5 10.75 14.2761 10.75 14V13.25H11.5C11.7761 13.25 12 13.0261 12 12.75V12.25C12 11.9739 11.7761 11.75 11.5 11.75H10.75L10.75 11ZM18 12.5C18.5523 12.5 19 12.0523 19 11.5C19 10.9477 18.5523 10.5 18 10.5C17.4477 10.5 17 10.9477 17 11.5C17 12.0523 17.4477 12.5 18 12.5ZM16 14.5C16.5523 14.5 17 14.0523 17 13.5C17 12.9477 16.5523 12.5 16 12.5C15.4477 12.5 15 12.9477 15 13.5C15 14.0523 15.4477 14.5 16 14.5Z" fill="#FA00FF"/>
</svg>
