<svg width="27" height="27" viewBox="0 0 27 27" fill="none" xmlns="http://www.w3.org/2000/svg">
<rect width="27" height="27" rx="13.5" fill="white"/>
<path d="M17.6916 12.3381C16.9712 11.5314 16.0336 10.9486 14.9896 10.6623L13.8471 8.5674L14.7394 7.00002H18.8439C19.5964 7.00002 20.0793 7.79972 19.7289 8.46562L17.6916 12.3381ZM13.5005 10.4613C11.9189 10.4593 10.4097 11.1265 9.34659 12.297L7.29179 8.47338C6.93377 7.80717 7.41634 7 8.17265 7H12.2616L14.0551 10.4885C13.8708 10.4704 13.6857 10.4613 13.5005 10.4613ZM13.5005 11.1616C16.2175 11.1616 18.4201 13.364 18.4201 16.0808C18.4201 18.7976 16.2175 21 13.5005 21C10.7835 21 8.58093 18.7976 8.58093 16.0808C8.58095 13.364 10.7835 11.1616 13.5005 11.1616ZM12.0185 17.7327C11.9764 17.9778 12.2336 18.1647 12.4537 18.049L13.36 17.5728C13.4474 17.5268 13.5518 17.5268 13.6391 17.5728L14.5458 18.0492C14.7658 18.1648 15.023 17.978 14.981 17.733L14.8082 16.7234C14.7916 16.6261 14.8238 16.5268 14.8945 16.4579L15.6276 15.7433C15.8057 15.5698 15.7074 15.2674 15.4614 15.2316L14.448 15.0843C14.3503 15.0701 14.2658 15.0087 14.2221 14.9202L13.7687 14.0015C13.6587 13.7784 13.3406 13.7785 13.2306 14.0016L12.7778 14.9201C12.7341 15.0086 12.6496 15.0701 12.5519 15.0843L11.5386 15.2316C11.2925 15.2674 11.1943 15.5697 11.3724 15.7433L12.1054 16.4578C12.1761 16.5268 12.2084 16.6261 12.1917 16.7234L12.0185 17.7327Z" fill="#FF8C00"/>
</svg>
