<svg width="27" height="27" viewBox="0 0 27 27" fill="none" xmlns="http://www.w3.org/2000/svg">
<rect width="27" height="27" rx="13.5" fill="black"/>
<path fill-rule="evenodd" clip-rule="evenodd" d="M14.7105 7.95064C14.4018 6.68312 12.598 6.68312 12.2893 7.95064C12.2432 8.14111 12.1527 8.318 12.0254 8.46692C11.898 8.61584 11.7373 8.73259 11.5562 8.80765C11.3752 8.88272 11.179 8.91399 10.9837 8.89891C10.7883 8.88384 10.5992 8.82285 10.4319 8.7209C9.31708 8.04164 8.04144 9.31729 8.7207 10.4321C9.15946 11.1519 8.77026 12.0912 7.95125 12.2903C6.68292 12.5982 6.68292 14.4028 7.95125 14.7099C8.14177 14.7561 8.31869 14.8466 8.46761 14.9741C8.61653 15.1015 8.73324 15.2624 8.80824 15.4435C8.88323 15.6246 8.91439 15.8209 8.89918 16.0163C8.88397 16.2117 8.82282 16.4008 8.7207 16.5681C8.04144 17.6829 9.31708 18.9586 10.4319 18.2793C10.5992 18.1772 10.7883 18.116 10.9837 18.1008C11.1791 18.0856 11.3754 18.1168 11.5565 18.1918C11.7376 18.2668 11.8985 18.3835 12.0259 18.5324C12.1534 18.6813 12.2439 18.8582 12.2901 19.0488C12.598 20.3171 14.4026 20.3171 14.7097 19.0488C14.756 18.8583 14.8466 18.6815 14.9741 18.5327C15.1016 18.3839 15.2624 18.2673 15.4435 18.1923C15.6246 18.1173 15.8208 18.0861 16.0161 18.1012C16.2115 18.1164 16.4006 18.1774 16.5679 18.2793C17.6827 18.9586 18.9584 17.6829 18.2791 16.5681C18.1772 16.4008 18.1162 16.2117 18.101 16.0163C18.0859 15.821 18.1171 15.6248 18.1921 15.4437C18.2671 15.2626 18.3837 15.1018 18.5325 14.9743C18.6813 14.8468 18.8581 14.7562 19.0485 14.7099C20.3169 14.402 20.3169 12.5974 19.0485 12.2903C18.858 12.2441 18.6811 12.1536 18.5322 12.0261C18.3833 11.8987 18.2666 11.7378 18.1916 11.5567C18.1166 11.3756 18.0854 11.1793 18.1006 10.9839C18.1158 10.7885 18.177 10.5994 18.2791 10.4321C18.9584 9.31729 17.6827 8.04164 16.5679 8.7209C16.4006 8.82302 16.2115 8.88417 16.0161 8.89939C15.8207 8.9146 15.6244 8.88344 15.4433 8.80844C15.2622 8.73345 15.1013 8.61673 14.9739 8.46781C14.8464 8.31889 14.7559 8.14197 14.7097 7.95145L14.7105 7.95064ZM13.4999 15.9376C14.1464 15.9376 14.7664 15.6808 15.2235 15.2237C15.6806 14.7666 15.9374 14.1466 15.9374 13.5001C15.9374 12.8536 15.6806 12.2336 15.2235 11.7765C14.7664 11.3194 14.1464 11.0626 13.4999 11.0626C12.8534 11.0626 12.2334 11.3194 11.7763 11.7765C11.3192 12.2336 11.0624 12.8536 11.0624 13.5001C11.0624 14.1466 11.3192 14.7666 11.7763 15.2237C12.2334 15.6808 12.8534 15.9376 13.4999 15.9376Z" fill="white"/>
</svg>
