<svg width="24" height="24" viewBox="0 0 24 24" fill="none" xmlns="http://www.w3.org/2000/svg">
<path d="M12 4.28561C8.01866 4.28561 5.2258 6.20788 5.2258 6.20788C6.75595 4.67009 9.42998 3.78415 9.42998 3.78415L9.17741 3.5C6.66682 3.55015 4.39389 5.50584 4.39389 5.50584C1.8387 11.5066 2.0021 16.6884 2.0021 16.6884C4.08192 19.7139 7.17189 19.4966 7.17189 19.4966L8.22666 17.9922C6.36968 17.5409 5.1961 15.6855 5.1961 15.6855C5.1961 15.6855 7.98896 17.825 12 17.825C16.011 17.825 18.8039 15.6855 18.8039 15.6855C18.8039 15.6855 17.6303 17.5409 15.7733 17.9922L16.8281 19.4966C16.8281 19.4966 19.9181 19.7139 21.9979 16.6884C21.9979 16.6884 22.1613 11.5066 19.6061 5.50584C19.6061 5.50584 17.3332 3.55015 14.8226 3.5L14.57 3.78415C14.57 3.78415 17.2441 4.67009 18.7742 6.20788C18.7742 6.20788 15.9813 4.28561 12 4.28561ZM8.92487 10.6207C9.89048 10.6207 10.6779 11.5735 10.663 12.7436C10.663 13.8969 9.89048 14.8664 8.92487 14.8664C7.97409 14.8664 7.20162 13.8969 7.20162 12.7436C7.20162 11.5735 7.95926 10.6207 8.92487 10.6207ZM15.1197 10.6207C16.0853 10.6207 16.8578 11.5735 16.8578 12.7436C16.8578 13.8969 16.0853 14.8664 15.1197 14.8664C14.1689 14.8664 13.3964 13.8969 13.3964 12.7436C13.3964 11.5735 14.1541 10.6207 15.1197 10.6207Z" fill="white"/>
</svg>
