<svg width="24" height="24" viewBox="0 0 24 24" fill="none" xmlns="http://www.w3.org/2000/svg">
<path fill-rule="evenodd" clip-rule="evenodd" d="M23 12C23 18.0751 18.0751 23 12 23C5.92487 23 1 18.0751 1 12C1 5.92487 5.92487 1 12 1C18.0751 1 23 5.92487 23 12ZM12.3924 9.11985C11.3225 9.56487 9.1842 10.4859 5.97748 11.883C5.45675 12.0901 5.18398 12.2927 5.15914 12.4908C5.11718 12.8255 5.5364 12.9574 6.10726 13.1369C6.18491 13.1613 6.26537 13.1866 6.34785 13.2134C6.90949 13.396 7.665 13.6096 8.05775 13.618C8.41402 13.6257 8.81166 13.4789 9.25066 13.1774C12.2468 11.1549 13.7934 10.1327 13.8905 10.1106C13.959 10.0951 14.054 10.0755 14.1183 10.1327C14.1826 10.1899 14.1763 10.2981 14.1695 10.3272C14.1279 10.5042 12.4823 12.0341 11.6308 12.8258C11.3653 13.0726 11.177 13.2477 11.1385 13.2877C11.0522 13.3772 10.9644 13.462 10.8799 13.5434C10.3581 14.0464 9.96682 14.4236 10.9015 15.0396C11.3507 15.3356 11.7102 15.5804 12.0688 15.8246C12.4604 16.0912 12.851 16.3572 13.3564 16.6885C13.4851 16.7729 13.6081 16.8606 13.7279 16.946C14.1836 17.2709 14.5931 17.5628 15.0989 17.5163C15.3929 17.4892 15.6965 17.2128 15.8507 16.3885C16.2151 14.4404 16.9314 10.2194 17.0969 8.48006C17.1114 8.32767 17.0932 8.13264 17.0785 8.04703C17.0639 7.96141 17.0333 7.83943 16.922 7.74913C16.7902 7.64219 16.5867 7.61964 16.4957 7.62116C16.082 7.62853 15.4472 7.84925 12.3924 9.11985Z" fill="white"/>
</svg>
