<svg width="24" height="24" viewBox="0 0 24 24" fill="none" xmlns="http://www.w3.org/2000/svg">
<path d="M21.6347 4.03181C20.8196 4.41679 19.4326 5.13876 18.7356 5.27675C18.7086 5.28375 18.6866 5.29275 18.6606 5.29975C17.8476 4.49779 16.7336 4.00082 15.5005 4.00082C13.0155 4.00082 11.0005 6.01571 11.0005 8.50059C11.0005 8.63158 10.9895 8.87257 11.0005 9.00056C7.78242 9.00056 5.43238 7.32165 3.67335 5.16376C3.43835 4.87377 3.18834 5.02476 3.13634 5.23075C3.01934 5.69673 2.97934 6.47569 2.97934 7.03166C2.97934 8.43259 4.07436 9.80852 5.77939 10.6615C5.46538 10.7425 5.11938 10.8005 4.75937 10.8005C4.33536 10.8005 3.84736 10.6895 3.42035 10.4655C3.26235 10.3825 2.92134 10.4055 3.02234 10.8095C3.42735 12.4284 5.27538 13.5653 6.92641 13.8963C6.5514 14.1173 5.75139 14.0723 5.38338 14.0723C5.24738 14.0723 4.77437 14.0403 4.46837 14.0023C4.18936 13.9683 3.76035 14.0403 4.11936 14.5843C4.89037 15.7512 6.6344 16.4842 8.13543 16.5122C6.7534 17.5961 4.49337 17.9921 2.32833 17.9921C1.89032 17.9821 1.91232 18.4811 2.26533 18.6661C3.86236 19.504 6.4784 20 8.34743 20C15.7776 20 20.0006 14.3373 20.0006 8.99956C20.0006 8.91356 19.9986 8.73357 19.9956 8.55258C19.9956 8.53458 20.0006 8.51758 20.0006 8.49959C20.0006 8.47259 19.9926 8.44659 19.9926 8.41959C19.9896 8.2836 19.9866 8.1566 19.9836 8.09061C20.5726 7.66563 21.4746 6.92767 21.9307 6.3627C22.0857 6.17071 21.9607 5.93772 21.7497 6.01071C21.2066 6.1997 20.2676 6.56569 19.6796 6.63568C20.8566 5.85672 21.4386 5.17876 21.9387 4.42579C22.1097 4.16881 21.8957 3.90782 21.6347 4.03181Z" fill="white"/>
</svg>
