<svg width="27" height="27" viewBox="0 0 27 27" fill="none" xmlns="http://www.w3.org/2000/svg">
<rect width="27" height="27" rx="13.5" fill="black"/>
<path d="M12.6127 18.1819C11.8778 18.1781 11.2187 17.9849 10.6354 17.6024C10.0521 17.216 9.59183 16.6819 9.25471 16.0001C8.91758 15.3183 8.74902 14.5304 8.74902 13.6365C8.74902 12.7425 8.92327 11.9603 9.27175 11.2899C9.62402 10.6194 10.0918 10.0967 10.6752 9.72168C11.2623 9.34668 11.9081 9.15918 12.6127 9.15918C13.0445 9.15918 13.4517 9.23115 13.8343 9.37509C14.2206 9.51903 14.5577 9.72736 14.8456 10.0001C15.1335 10.269 15.3513 10.5948 15.499 10.9774H16.3627L17.2263 13.6137L18.249 18.0001H15.9763L15.0218 13.6137C14.9649 13.3183 14.8892 13.0455 14.7945 12.7955C14.6998 12.5455 14.5805 12.3296 14.4365 12.1478C14.2964 11.9622 14.1297 11.8202 13.9365 11.7217C13.7433 11.6194 13.5218 11.5683 13.2718 11.5683C12.9384 11.5683 12.66 11.6554 12.4365 11.8296C12.2168 12.0039 12.0502 12.2425 11.9365 12.5455C11.8267 12.8486 11.7718 13.1971 11.7718 13.591C11.7718 14.0039 11.8324 14.3694 11.9536 14.6876C12.0748 15.0058 12.2433 15.2558 12.4593 15.4376C12.6752 15.6156 12.9233 15.7046 13.2036 15.7046C13.4308 15.7046 13.643 15.6497 13.8399 15.5399C14.0369 15.4262 14.213 15.2728 14.3683 15.0796C14.5274 14.8865 14.6619 14.6686 14.7718 14.4262C14.8854 14.18 14.9687 13.9243 15.0218 13.6592L15.9081 9.27282H18.1354L17.2263 13.6592L16.3627 16.1592H15.499C15.3702 16.5342 15.1789 16.8751 14.9252 17.1819C14.6714 17.4849 14.3513 17.7274 13.9649 17.9092C13.5824 18.091 13.1316 18.1819 12.6127 18.1819Z" fill="white"/>
</svg>
