<svg width="27" height="27" viewBox="0 0 27 27" fill="none" xmlns="http://www.w3.org/2000/svg">
<rect width="27" height="27" rx="13.5" fill="white"/>
<path d="M13.0544 11.2723H14.1226C14.937 11.2723 15.6415 11.4181 16.2362 11.7098C16.8309 11.9977 17.2912 12.3992 17.6169 12.9143C17.9427 13.4257 18.1037 14.0147 18.0999 14.6814C18.1037 15.3708 17.9408 15.9711 17.6112 16.4825C17.2855 16.9939 16.8499 17.3897 16.3044 17.67C15.7628 17.9503 15.1643 18.0905 14.509 18.0905C14.1378 18.0905 13.776 18.0507 13.4237 17.9711C13.0715 17.8878 12.7287 17.7609 12.3953 17.5905L12.3271 17.6132V14.0223C12.3309 14.3026 12.3896 14.5583 12.5033 14.7893C12.6169 15.0204 12.7817 15.2041 12.9976 15.3405C13.2135 15.4768 13.4749 15.545 13.7817 15.545C14.0506 15.545 14.2855 15.4939 14.4862 15.3916C14.687 15.2893 14.8442 15.1473 14.9578 14.9655C15.0715 14.7836 15.1264 14.5753 15.1226 14.3405C15.1264 14.045 15.0506 13.8158 14.8953 13.653C14.74 13.4863 14.5431 13.3708 14.3044 13.3064C14.0658 13.2382 13.8158 13.2041 13.5544 13.2041H13.0544V11.2723ZM13.5317 6.2041C14.0165 6.2041 14.4995 6.2666 14.9806 6.3916C15.4616 6.5166 15.8991 6.70789 16.2931 6.96547C16.6908 7.22304 17.0071 7.55069 17.2419 7.94842C17.4806 8.34615 17.5999 8.81774 17.5999 9.36319C17.6037 9.94653 17.4578 10.5071 17.1624 11.045C16.8707 11.5829 16.4578 12.0242 15.9237 12.3689C15.3934 12.7136 14.7703 12.8859 14.0544 12.8859H13.0544V11.1132H13.4862C13.8234 11.1132 14.0677 11.0488 14.2192 10.92C14.3745 10.7912 14.473 10.6397 14.5146 10.4655C14.5601 10.2912 14.5809 10.1359 14.5771 9.99956C14.5809 9.67001 14.4957 9.40297 14.3215 9.19842C14.151 8.99009 13.8878 8.88592 13.5317 8.88592C13.2931 8.88592 13.0828 8.93706 12.901 9.03933C12.723 9.1416 12.5828 9.2988 12.4806 9.51092C12.3821 9.72304 12.3309 9.99198 12.3271 10.3177V21.2723H9.32715V10.0677C9.33094 9.24956 9.52412 8.55259 9.90669 7.97683C10.2893 7.40107 10.7987 6.96168 11.4351 6.65865C12.0715 6.35562 12.7703 6.2041 13.5317 6.2041Z" fill="#FA00FF"/>
</svg>
