<svg width="27" height="27" viewBox="0 0 27 27" fill="none" xmlns="http://www.w3.org/2000/svg">
<rect width="27" height="27" rx="13.5" fill="white"/>
<path d="M11.3426 15.7773C12.0527 16.499 12.1349 17.2748 11.3478 18.0748C10.8601 18.5701 10.0705 18.8677 8.98396 18.9951C8.92774 19.0018 8.87091 19.0015 8.81438 18.9948C8.43243 18.9484 8.15346 18.6089 8.17179 18.2211L8.17576 18.1704L8.19134 18.0421C8.32457 17.0062 8.61301 16.2478 9.08144 15.7718C9.86855 14.9721 10.6321 15.0559 11.3426 15.7773ZM17.8482 8.19547L17.971 8.23305L18.0911 8.27308C18.2389 8.32491 18.373 8.4097 18.4832 8.52104C18.5933 8.63237 18.6767 8.76733 18.727 8.91567C19.2058 10.3145 19.0536 11.7317 18.2818 13.1366C17.9637 13.7154 17.5567 14.2632 17.0614 14.7799L16.9242 14.9202L16.7943 15.0473L16.7907 15.0867C16.7005 15.9282 16.0622 17.0411 14.8861 18.4799L14.7841 18.6043L14.5961 18.8289C14.3835 19.0813 13.9875 19.011 13.8634 18.7128L13.8488 18.6727L13.1912 16.5742L13.1316 16.5329C12.7621 16.2697 12.4102 15.9827 12.078 15.6737L11.9146 15.5179L11.7545 15.359C11.2815 14.8777 10.8559 14.3522 10.4833 13.7896L10.447 13.7331L8.30562 13.0407C8.00434 12.9429 7.90718 12.5704 8.09846 12.3364L8.12382 12.3077L8.15132 12.282C9.91255 10.7432 11.2121 9.98023 12.1428 10.0438L12.2027 10.049L12.2375 10.0533L12.3161 9.97382C12.7384 9.55398 13.1805 9.19678 13.6428 8.90314L13.7974 8.8075L13.9395 8.72439C15.2296 7.99289 16.5392 7.81291 17.8482 8.19578V8.19547ZM13.9007 11.1505C13.3651 11.6865 13.3669 12.557 13.905 13.0951C14.4431 13.6332 15.3136 13.635 15.8495 13.0994C16.3852 12.5634 16.3834 11.6929 15.8453 11.1548C15.3072 10.6167 14.4366 10.6149 13.9007 11.1505Z" fill="#0038FF"/>
</svg>
