<svg width="27" height="27" viewBox="0 0 27 27" fill="none" xmlns="http://www.w3.org/2000/svg">
<rect width="27" height="27" rx="13.5" fill="white"/>
<path fill-rule="evenodd" clip-rule="evenodd" d="M13.5 19.5C16.8137 19.5 19.5 16.8137 19.5 13.5C19.5 10.1863 16.8137 7.5 13.5 7.5C10.1863 7.5 7.5 10.1863 7.5 13.5C7.5 16.8137 10.1863 19.5 13.5 19.5ZM14.5001 11C14.5001 10.4477 14.0523 10 13.5001 10C12.9478 10 12.5001 10.4477 12.5001 11V13.5L10.9001 14.7C10.4582 15.0314 10.3687 15.6582 10.7001 16.1C11.0314 16.5418 11.6582 16.6314 12.1001 16.3L14.5001 14.5V11Z" fill="#731FFF"/>
</svg>
