<svg width="24" height="24" viewBox="0 0 24 24" fill="none" xmlns="http://www.w3.org/2000/svg">
<rect width="24" height="24" rx="12" fill="#0038FF"/>
<rect x="11" y="4" width="2" height="4" rx="1" fill="white"/>
<rect opacity="0.6" x="11" y="16" width="2" height="4" rx="1" fill="white"/>
<rect x="5.63574" y="7.0498" width="2" height="4" rx="1" transform="rotate(-45 5.63574 7.0498)" fill="white"/>
<rect opacity="0.45" x="14.1211" y="15.5352" width="2" height="4" rx="1" transform="rotate(-45 14.1211 15.5352)" fill="white"/>
<rect opacity="0.9" x="4.00098" y="13" width="2" height="4" rx="1" transform="rotate(-90 4.00098 13)" fill="white"/>
<rect opacity="0.3" x="16.001" y="13" width="2" height="4" rx="1" transform="rotate(-90 16.001 13)" fill="white"/>
<rect opacity="0.75" x="7.0498" y="18.3643" width="2" height="4" rx="1" transform="rotate(-135 7.0498 18.3643)" fill="white"/>
<rect opacity="0.15" x="15.5352" y="9.87891" width="2" height="4" rx="1" transform="rotate(-135 15.5352 9.87891)" fill="white"/>
</svg>
