<svg width="24" height="24" viewBox="0 0 24 24" fill="none" xmlns="http://www.w3.org/2000/svg">
<rect width="24" height="24" rx="12" fill="#FA00FF"/>
<path d="M14 5L13.6286 15.1538H10.3715L10.0001 5H14ZM12 20C11.4477 20 10.9739 19.8053 10.5786 19.4159C10.1882 19.0216 9.99532 18.5433 10.0001 17.9808C9.99532 17.4327 10.1882 16.9639 10.5786 16.5745C10.9739 16.1851 11.4477 15.9904 12 15.9904C12.5238 15.9904 12.9857 16.1851 13.3857 16.5745C13.7905 16.9639 13.9952 17.4327 14 17.9808C13.9952 18.3558 13.8976 18.6971 13.7071 19.0048C13.5214 19.3077 13.2786 19.5505 12.9786 19.7332C12.6786 19.9111 12.3524 20 12 20Z" fill="white"/>
</svg>
