<svg width="40" height="40" viewBox="0 0 40 40" fill="none" xmlns="http://www.w3.org/2000/svg">
<circle cx="20" cy="20" r="20" fill="white"/>
<path d="M31 19.9998C31 13.9247 26.0751 8.99979 20 8.99979C13.9249 8.99979 9 13.9247 9 19.9998C9 25.4902 13.0225 30.041 18.2812 30.8662V23.1795H15.4883V19.9998H18.2812V17.5764C18.2812 14.8195 19.9235 13.2967 22.4361 13.2967C23.6396 13.2967 24.8984 13.5115 24.8984 13.5115V16.2186H23.5114C22.1449 16.2186 21.7188 17.0665 21.7188 17.9364V19.9998H24.7695L24.2818 23.1795H21.7188V30.8662C26.9775 30.041 31 25.4902 31 19.9998Z" fill="#1877F2"/>
<path d="M24.2818 23.1797L24.7695 20H21.7187V17.9365C21.7187 17.0666 22.1449 16.2187 23.5113 16.2187H24.8984V13.5117C24.8984 13.5117 23.6396 13.2968 22.4361 13.2968C19.9235 13.2968 18.2812 14.8197 18.2812 17.5765V20H15.4883V23.1797H18.2812V30.8664C18.8413 30.9542 19.4153 31 20 31C20.5847 31 21.1587 30.9542 21.7187 30.8664V23.1797H24.2818Z" fill="white"/>
</svg>
