<svg width="40" height="40" viewBox="0 0 40 40" fill="none" xmlns="http://www.w3.org/2000/svg">
<circle cx="20" cy="20" r="20" fill="white"/>
<path fill-rule="evenodd" clip-rule="evenodd" d="M20 9.6001C14.1988 9.6001 9.5 14.303 9.5 20.1094C9.5 24.7597 12.5056 28.6875 16.6794 30.08C17.2044 30.172 17.4012 29.8567 17.4012 29.5808C17.4012 29.3312 17.3881 28.5036 17.3881 27.6235C14.75 28.1095 14.0675 26.9798 13.8575 26.3886C13.7394 26.0865 13.2275 25.1538 12.7812 24.9042C12.4137 24.7072 11.8888 24.2211 12.7681 24.208C13.595 24.1948 14.1856 24.9699 14.3825 25.2852C15.3275 26.8747 16.8369 26.4281 17.4406 26.1522C17.5325 25.4691 17.8081 25.0093 18.11 24.7466C15.7737 24.4838 13.3325 23.5774 13.3325 19.5576C13.3325 18.4147 13.7394 17.4689 14.4088 16.7333C14.3038 16.4705 13.9362 15.3933 14.5138 13.9483C14.5138 13.9483 15.3931 13.6724 17.4012 15.0255C18.2413 14.789 19.1338 14.6708 20.0263 14.6708C20.9188 14.6708 21.8113 14.789 22.6513 15.0255C24.6594 13.6593 25.5387 13.9483 25.5387 13.9483C26.1163 15.3933 25.7488 16.4705 25.6438 16.7333C26.3131 17.4689 26.72 18.4016 26.72 19.5576C26.72 23.5906 24.2656 24.4838 21.9294 24.7466C22.31 25.075 22.6381 25.7055 22.6381 26.6908C22.6381 28.0964 22.625 29.2261 22.625 29.5808C22.625 29.8567 22.8219 30.1851 23.3469 30.08C27.4944 28.6875 30.5 24.7466 30.5 20.1094C30.5 14.303 25.8013 9.6001 20 9.6001Z" fill="#1B1F23"/>
</svg>
