<svg width="40" height="40" viewBox="0 0 40 40" fill="none" xmlns="http://www.w3.org/2000/svg">
<circle cx="20" cy="20" r="20" fill="white"/>
<path d="M20.0056 10.1514C15.8933 10.1514 14.6906 10.1556 14.4568 10.175C13.6129 10.2452 13.0878 10.378 12.5157 10.6629C12.0748 10.8818 11.7271 11.1356 11.3839 11.4914C10.7589 12.1402 10.3801 12.9383 10.243 13.8871C10.1763 14.3477 10.157 14.4417 10.153 16.7944C10.1515 17.5786 10.153 18.6108 10.153 19.9952C10.153 24.1042 10.1576 25.3058 10.1773 25.5391C10.2454 26.3603 10.3742 26.877 10.6469 27.4421C11.1681 28.5239 12.1636 29.3361 13.3363 29.6391C13.7423 29.7436 14.1908 29.8012 14.7665 29.8285C15.0104 29.8391 17.4967 29.8467 19.9845 29.8467C22.4723 29.8467 24.9602 29.8436 25.198 29.8315C25.8647 29.8002 26.2518 29.7482 26.6798 29.6376C27.8601 29.333 28.8373 28.533 29.3691 27.4361C29.6365 26.8846 29.7721 26.3482 29.8335 25.5699C29.8468 25.4002 29.8524 22.6945 29.8524 19.9926C29.8524 17.2902 29.8464 14.5895 29.833 14.4199C29.7709 13.6289 29.6353 13.0971 29.3593 12.535C29.1328 12.0749 28.8812 11.7312 28.5161 11.3799C27.8645 10.7574 27.0675 10.3786 26.1178 10.2417C25.6577 10.1752 25.566 10.1555 23.2116 10.1514H20.0056Z" fill="url(#paint0_radial_151_19905)"/>
<path d="M20.0056 10.1514C15.8933 10.1514 14.6906 10.1556 14.4568 10.175C13.6129 10.2452 13.0878 10.378 12.5157 10.6629C12.0748 10.8818 11.7271 11.1356 11.3839 11.4914C10.7589 12.1402 10.3801 12.9383 10.243 13.8871C10.1763 14.3477 10.157 14.4417 10.153 16.7944C10.1515 17.5786 10.153 18.6108 10.153 19.9952C10.153 24.1042 10.1576 25.3058 10.1773 25.5391C10.2454 26.3603 10.3742 26.877 10.6469 27.4421C11.1681 28.5239 12.1636 29.3361 13.3363 29.6391C13.7423 29.7436 14.1908 29.8012 14.7665 29.8285C15.0104 29.8391 17.4967 29.8467 19.9845 29.8467C22.4723 29.8467 24.9602 29.8436 25.198 29.8315C25.8647 29.8002 26.2518 29.7482 26.6798 29.6376C27.8601 29.333 28.8373 28.533 29.3691 27.4361C29.6365 26.8846 29.7721 26.3482 29.8335 25.5699C29.8468 25.4002 29.8524 22.6945 29.8524 19.9926C29.8524 17.2902 29.8464 14.5895 29.833 14.4199C29.7709 13.6289 29.6353 13.0971 29.3593 12.535C29.1328 12.0749 28.8812 11.7312 28.5161 11.3799C27.8645 10.7574 27.0675 10.3786 26.1178 10.2417C25.6577 10.1752 25.566 10.1555 23.2116 10.1514H20.0056Z" fill="url(#paint1_radial_151_19905)"/>
<path d="M19.9997 12.7271C18.0246 12.7271 17.7767 12.7357 17.001 12.771C16.2268 12.8064 15.6983 12.929 15.2359 13.1089C14.7576 13.2946 14.3518 13.5431 13.9476 13.9475C13.5431 14.3517 13.2946 14.7575 13.1082 15.2357C12.9279 15.6983 12.8052 16.2269 12.7703 17.0008C12.7357 17.7766 12.7266 18.0246 12.7266 19.9998C12.7266 21.9749 12.7354 22.2221 12.7705 22.9978C12.8061 23.7721 12.9287 24.3005 13.1084 24.763C13.2943 25.2413 13.5427 25.6471 13.9471 26.0513C14.3512 26.4558 14.757 26.7049 15.235 26.8907C15.6977 27.0705 16.2263 27.1931 17.0004 27.2286C17.7761 27.2639 18.0238 27.2725 19.9988 27.2725C21.974 27.2725 22.2211 27.2639 22.9969 27.2286C23.7711 27.1931 24.3002 27.0705 24.7629 26.8907C25.241 26.7049 25.6462 26.4558 26.0503 26.0513C26.4548 25.6471 26.7033 25.2413 26.8896 24.7631C27.0684 24.3005 27.1911 23.7719 27.2275 22.998C27.2623 22.2222 27.2714 21.9749 27.2714 19.9998C27.2714 18.0246 27.2623 17.7767 27.2275 17.001C27.1911 16.2267 27.0684 15.6983 26.8896 15.2358C26.7033 14.7575 26.4548 14.3517 26.0503 13.9475C25.6457 13.543 25.2412 13.2945 24.7624 13.1089C24.2988 12.929 23.77 12.8064 22.9958 12.771C22.2201 12.7357 21.9731 12.7271 19.9974 12.7271H19.9997ZM19.3473 14.0377C19.5409 14.0374 19.757 14.0377 19.9997 14.0377C21.9414 14.0377 22.1716 14.0446 22.9384 14.0795C23.6474 14.1119 24.0323 14.2304 24.2886 14.3299C24.628 14.4617 24.87 14.6193 25.1244 14.8739C25.3789 15.1284 25.5365 15.3708 25.6686 15.7102C25.7681 15.9663 25.8868 16.3511 25.919 17.0602C25.9539 17.8269 25.9615 18.0572 25.9615 19.9981C25.9615 21.939 25.9539 22.1693 25.919 22.936C25.8866 23.6451 25.7681 24.0299 25.6686 24.286C25.5368 24.6254 25.3789 24.8671 25.1244 25.1214C24.8698 25.376 24.6282 25.5336 24.2886 25.6654C24.0326 25.7654 23.6474 25.8836 22.9384 25.916C22.1717 25.9508 21.9414 25.9584 19.9997 25.9584C18.0578 25.9584 17.8276 25.9508 17.061 25.916C16.3519 25.8833 15.9671 25.7648 15.7106 25.6652C15.3712 25.5334 15.1288 25.3758 14.8742 25.1213C14.6197 24.8667 14.4621 24.6249 14.33 24.2854C14.2305 24.0293 14.1118 23.6445 14.0796 22.9354C14.0447 22.1687 14.0377 21.9384 14.0377 19.9963C14.0377 18.0542 14.0447 17.8251 14.0796 17.0584C14.112 16.3493 14.2305 15.9645 14.33 15.7081C14.4618 15.3687 14.6197 15.1263 14.8742 14.8717C15.1288 14.6172 15.3712 14.4596 15.7106 14.3275C15.9669 14.2275 16.3519 14.1093 17.061 14.0767C17.7319 14.0464 17.9919 14.0374 19.3473 14.0358V14.0377ZM23.8817 15.2452C23.3999 15.2452 23.009 15.6357 23.009 16.1177C23.009 16.5995 23.3999 16.9904 23.8817 16.9904C24.3635 16.9904 24.7544 16.5995 24.7544 16.1177C24.7544 15.6358 24.3635 15.2449 23.8817 15.2449V15.2452ZM19.9997 16.2649C17.9372 16.2649 16.2649 17.9372 16.2649 19.9998C16.2649 22.0624 17.9372 23.7339 19.9997 23.7339C22.0622 23.7339 23.7338 22.0624 23.7338 19.9998C23.7338 17.9372 22.062 16.2649 19.9995 16.2649H19.9997ZM19.9997 17.5755C21.3384 17.5755 22.4238 18.6608 22.4238 19.9998C22.4238 21.3386 21.3384 22.424 19.9997 22.424C18.6608 22.424 17.5755 21.3386 17.5755 19.9998C17.5755 18.6608 18.6608 17.5755 19.9997 17.5755Z" fill="white"/>
<defs>
<radialGradient id="paint0_radial_151_19905" cx="0" cy="0" r="1" gradientUnits="userSpaceOnUse" gradientTransform="translate(15.3852 31.3636) rotate(-90) scale(19.5195 18.1591)">
<stop stop-color="#FFDD55"/>
<stop offset="0.1" stop-color="#FFDD55"/>
<stop offset="0.5" stop-color="#FF543E"/>
<stop offset="1" stop-color="#C837AB"/>
</radialGradient>
<radialGradient id="paint1_radial_151_19905" cx="0" cy="0" r="1" gradientUnits="userSpaceOnUse" gradientTransform="translate(6.85248 11.5702) rotate(78.678) scale(8.72538 35.9744)">
<stop stop-color="#3771C8"/>
<stop offset="0.128" stop-color="#3771C8"/>
<stop offset="1" stop-color="#6600FF" stop-opacity="0"/>
</radialGradient>
</defs>
</svg>
