<svg width="40" height="40" viewBox="0 0 40 40" fill="none" xmlns="http://www.w3.org/2000/svg">
<circle cx="20" cy="20" r="20" fill="white"/>
<path fill-rule="evenodd" clip-rule="evenodd" d="M21.7501 20.0001C21.7501 23.8661 18.6161 27.0001 14.7501 27.0001C10.884 27.0001 7.75 23.8661 7.75 20.0001C7.75 16.134 10.884 13 14.7501 13C18.6161 13 21.7501 16.134 21.7501 20.0001ZM29.2169 20.0585C29.2169 23.699 27.6498 26.6503 25.7168 26.6503C23.7838 26.6503 22.2168 23.699 22.2168 20.0585C22.2168 16.418 23.7838 13.4668 25.7168 13.4668C27.6498 13.4668 29.2169 16.418 29.2169 20.0585ZM31.0827 25.8338C31.727 25.8338 32.2494 23.2221 32.2494 20.0004C32.2494 16.7787 31.727 14.167 31.0827 14.167C30.4384 14.167 29.916 16.7787 29.916 20.0004C29.916 23.2221 30.4384 25.8338 31.0827 25.8338Z" fill="black"/>
</svg>
