<svg width="40" height="40" viewBox="0 0 40 40" fill="none" xmlns="http://www.w3.org/2000/svg">
<circle cx="20" cy="20" r="20" fill="white"/>
<path fill-rule="evenodd" clip-rule="evenodd" d="M28.747 22.2424C28.747 21.7391 28.6637 21.2497 28.5041 20.7811C29.3822 20.3924 29.9966 19.5142 30 18.4973C30 17.1158 28.8824 15.9982 27.501 15.9982C26.5603 15.9982 25.7447 16.5153 25.3177 17.2824C24.0335 16.5813 22.4681 16.1266 20.7639 16.0225L22.2564 12.673L25.1095 13.4956C25.3663 14.2245 26.0605 14.7486 26.8762 14.7486C27.9105 14.7486 28.7505 13.9087 28.7505 12.8743C28.7505 11.84 27.9105 11 26.8762 11C26.1612 11 25.5399 11.3992 25.224 11.9857L22.0446 11.0659C21.6871 10.9618 21.3088 11.1354 21.1595 11.4755L19.1325 16.0259C17.4699 16.1405 15.9427 16.5917 14.6862 17.2789C14.2593 16.5119 13.4436 15.9947 12.503 15.9947C11.1216 15.9947 10.0039 17.1123 10.0039 18.4938C10.0039 19.5177 10.6183 20.3924 11.4964 20.7811C11.3368 21.2497 11.2534 21.7391 11.2534 22.2424C11.2534 25.6925 15.1687 28.4901 20.0002 28.4901C24.8318 28.4901 28.747 25.6925 28.747 22.2424ZM20.0007 24.5059C21.0212 24.5059 22.0416 24.0685 22.5588 23.6624C22.8816 23.409 23.3502 23.4646 23.6035 23.7874C23.8569 24.1067 23.8014 24.5753 23.4786 24.8287C22.5831 25.5367 21.219 25.9914 20.0007 25.9914C18.7824 25.9914 17.4183 25.5367 16.5263 24.8287C16.2035 24.5753 16.1479 24.1102 16.4013 23.7874C16.6547 23.4646 17.1198 23.409 17.4426 23.6624C17.9563 24.0685 18.9802 24.5059 20.0007 24.5059ZM11.2539 18.4942C11.2539 17.8035 11.8127 17.2446 12.5034 17.2446C12.9998 17.2446 13.4337 17.5362 13.6315 17.9596C12.979 18.456 12.4375 19.0252 12.0383 19.6535C11.5802 19.4695 11.2539 19.0183 11.2539 18.4942ZM27.4972 17.2446C27.0009 17.2446 26.567 17.5362 26.3691 17.9596C27.0217 18.456 27.5631 19.0252 27.9623 19.6535C28.4205 19.4695 28.7467 19.0183 28.7467 18.4942C28.7467 17.8035 28.1879 17.2446 27.4972 17.2446ZM22.498 20.9932C22.498 21.3246 22.6297 21.6424 22.864 21.8768C23.0984 22.1111 23.4162 22.2427 23.7476 22.2427C24.079 22.2427 24.3968 22.1111 24.6311 21.8768C24.8655 21.6424 24.9971 21.3246 24.9971 20.9932C24.9971 20.6618 24.8655 20.344 24.6311 20.1096C24.3968 19.8753 24.079 19.7437 23.7476 19.7437C23.4162 19.7437 23.0984 19.8753 22.864 20.1096C22.6297 20.344 22.498 20.6618 22.498 20.9932ZM15.0059 20.9932C15.0059 21.3246 15.1375 21.6424 15.3718 21.8768C15.6062 22.1111 15.924 22.2427 16.2554 22.2427C16.5868 22.2427 16.9046 22.1111 17.139 21.8768C17.3733 21.6424 17.5049 21.3246 17.5049 20.9932C17.5049 20.6618 17.3733 20.344 17.139 20.1096C16.9046 19.8753 16.5868 19.7437 16.2554 19.7437C15.924 19.7437 15.6062 19.8753 15.3718 20.1096C15.1375 20.344 15.0059 20.6618 15.0059 20.9932Z" fill="#EB5528"/>
</svg>
