<svg width="40" height="40" viewBox="0 0 40 40" fill="none" xmlns="http://www.w3.org/2000/svg">
<circle cx="20" cy="20" r="20" fill="white"/>
<path d="M20 31C26.0751 31 31 26.0751 31 20C31 13.9249 26.0751 9 20 9C13.9249 9 9 13.9249 9 20C9 26.0751 13.9249 31 20 31Z" fill="url(#paint0_linear_151_19864)"/>
<path d="M13.9775 19.884C17.1842 18.4869 19.3225 17.5658 20.3924 17.1208C23.4472 15.8502 24.082 15.6295 24.4957 15.6221C24.5867 15.6206 24.7902 15.6432 24.922 15.7501C25.0333 15.8404 25.0639 15.9624 25.0785 16.048C25.0932 16.1336 25.1114 16.3286 25.0969 16.481C24.9314 18.2204 24.2151 22.4414 23.8507 24.3895C23.6965 25.2138 23.3929 25.4902 23.0989 25.5172C22.4601 25.576 21.9751 25.0951 21.3564 24.6895C20.3882 24.0549 19.8413 23.6598 18.9015 23.0405C17.8155 22.3249 18.5195 21.9315 19.1385 21.2886C19.3005 21.1204 22.115 18.5604 22.1695 18.3281C22.1763 18.2991 22.1826 18.1908 22.1183 18.1337C22.054 18.0765 21.959 18.0961 21.8905 18.1116C21.7934 18.1336 20.2468 19.1559 17.2507 21.1784C16.8117 21.4798 16.414 21.6267 16.0578 21.619C15.665 21.6105 14.9095 21.3969 14.3478 21.2144C13.659 20.9904 13.1115 20.8721 13.1591 20.4918C13.184 20.2937 13.4568 20.0911 13.9775 19.884Z" fill="white"/>
<defs>
<linearGradient id="paint0_linear_151_19864" x1="20" y1="9" x2="20" y2="30.8368" gradientUnits="userSpaceOnUse">
<stop stop-color="#2AABEE"/>
<stop offset="1" stop-color="#229ED9"/>
</linearGradient>
</defs>
</svg>
