<svg width="40" height="40" viewBox="0 0 40 40" fill="none" xmlns="http://www.w3.org/2000/svg">
<circle cx="20" cy="20" r="20" fill="white"/>
<path d="M29.6347 12.0318C28.8196 12.4168 27.4326 13.1388 26.7356 13.2768C26.7086 13.2838 26.6866 13.2927 26.6606 13.2997C25.8476 12.4978 24.7336 12.0008 23.5005 12.0008C21.0155 12.0008 19.0005 14.0157 19.0005 16.5006C19.0005 16.6316 18.9895 16.8726 19.0005 17.0006C15.7824 17.0006 13.4324 15.3216 11.6734 13.1638C11.4383 12.8738 11.1883 13.0248 11.1363 13.2308C11.0193 13.6967 10.9793 14.4757 10.9793 15.0317C10.9793 16.4326 12.0744 17.8085 13.7794 18.6615C13.4654 18.7425 13.1194 18.8005 12.7594 18.8005C12.3354 18.8005 11.8474 18.6895 11.4203 18.4655C11.2623 18.3825 10.9213 18.4055 11.0223 18.8095C11.4273 20.4284 13.2754 21.5653 14.9264 21.8963C14.5514 22.1173 13.7514 22.0723 13.3834 22.0723C13.2474 22.0723 12.7744 22.0403 12.4684 22.0023C12.1894 21.9683 11.7604 22.0403 12.1194 22.5843C12.8904 23.7512 14.6344 24.4842 16.1354 24.5122C14.7534 25.5961 12.4934 25.9921 10.3283 25.9921C9.89032 25.9821 9.91232 26.4811 10.2653 26.6661C11.8624 27.504 14.4784 28 16.3474 28C23.7776 28 28.0006 22.3373 28.0006 16.9996C28.0006 16.9136 27.9986 16.7336 27.9956 16.5526C27.9956 16.5346 28.0006 16.5176 28.0006 16.4996C28.0006 16.4726 27.9926 16.4466 27.9926 16.4196C27.9896 16.2836 27.9866 16.1566 27.9836 16.0906C28.5726 15.6656 29.4746 14.9277 29.9307 14.3627C30.0857 14.1707 29.9607 13.9377 29.7497 14.0107C29.2066 14.1997 28.2676 14.5657 27.6796 14.6357C28.8566 13.8567 29.4386 13.1788 29.9387 12.4258C30.1097 12.1688 29.8957 11.9078 29.6347 12.0318Z" fill="#1DA1F2"/>
</svg>
