<svg width="40" height="40" viewBox="0 0 40 40" fill="none" xmlns="http://www.w3.org/2000/svg">
<circle cx="20" cy="20" r="20" fill="white"/>
<path d="M30.5145 14.7027C30.3883 14.2364 30.1421 13.8112 29.8005 13.4696C29.4589 13.128 29.0337 12.8818 28.5674 12.7556C26.8602 12.29 19.9889 12.29 19.9889 12.29C19.9889 12.29 13.1176 12.3041 11.4103 12.7698C10.944 12.896 10.5188 13.1421 10.1772 13.4837C9.8356 13.8254 9.58944 14.2505 9.46325 14.7169C8.94684 17.7504 8.74649 22.3726 9.47736 25.2848C9.60355 25.7512 9.84971 26.1763 10.1913 26.5179C10.533 26.8596 10.9581 27.1057 11.4245 27.2319C13.1317 27.6975 20.003 27.6975 20.003 27.6975C20.003 27.6975 26.8743 27.6975 28.5815 27.2319C29.0479 27.1057 29.473 26.8596 29.8146 26.5179C30.1562 26.1763 30.4024 25.7512 30.5286 25.2848C31.0732 22.2471 31.2411 17.6276 30.5145 14.7027Z" fill="#FF0000"/>
<path d="M17.8008 23.2956L23.501 19.994L17.8008 16.6924V23.2956Z" fill="white"/>
</svg>
