<svg width="40" height="40" viewBox="0 0 40 40" fill="none" xmlns="http://www.w3.org/2000/svg">
<circle cx="20" cy="20" r="20" fill="white"/>
<path d="M20 12.2856C16.0187 12.2856 13.2258 14.2079 13.2258 14.2079C14.7559 12.6701 17.43 11.7841 17.43 11.7841L17.1774 11.5C14.6668 11.5501 12.3939 13.5058 12.3939 13.5058C9.8387 19.5066 10.0021 24.6884 10.0021 24.6884C12.0819 27.7139 15.1719 27.4966 15.1719 27.4966L16.2267 25.9922C14.3697 25.5409 13.1961 23.6855 13.1961 23.6855C13.1961 23.6855 15.989 25.825 20 25.825C24.011 25.825 26.8039 23.6855 26.8039 23.6855C26.8039 23.6855 25.6303 25.5409 23.7733 25.9922L24.8281 27.4966C24.8281 27.4966 27.9181 27.7139 29.9979 24.6884C29.9979 24.6884 30.1613 19.5066 27.6061 13.5058C27.6061 13.5058 25.3332 11.5501 22.8226 11.5L22.57 11.7841C22.57 11.7841 25.2441 12.6701 26.7742 14.2079C26.7742 14.2079 23.9813 12.2856 20 12.2856ZM16.9249 18.6207C17.8905 18.6207 18.6779 19.5735 18.663 20.7436C18.663 21.8969 17.8905 22.8664 16.9249 22.8664C15.9741 22.8664 15.2016 21.8969 15.2016 20.7436C15.2016 19.5735 15.9593 18.6207 16.9249 18.6207ZM23.1197 18.6207C24.0853 18.6207 24.8578 19.5735 24.8578 20.7436C24.8578 21.8969 24.0853 22.8664 23.1197 22.8664C22.1689 22.8664 21.3964 21.8969 21.3964 20.7436C21.3964 19.5735 22.1541 18.6207 23.1197 18.6207Z" fill="#5B64EB"/>
</svg>
