<svg width="27" height="27" viewBox="0 0 27 27" fill="none" xmlns="http://www.w3.org/2000/svg">
<rect width="27" height="27" rx="13.5" fill="#0038FF"/>
<path fill-rule="evenodd" clip-rule="evenodd" d="M19.2683 9.64021C19.6219 9.21593 19.5646 8.58537 19.1403 8.2318C18.716 7.87824 18.0854 7.93556 17.7319 8.35984L16.0893 10.331L15.8322 9.94532C15.5258 9.4858 14.9049 9.36162 14.4454 9.66797C13.9859 9.97433 13.8617 10.5952 14.1681 11.0547L15.1681 12.5547C15.3431 12.8172 15.6317 12.9818 15.9468 12.9986C16.2618 13.0154 16.5663 12.8826 16.7683 12.6402L19.2683 9.64021ZM10.5 8C9.11929 8 8 9.11929 8 10.5C8 11.8807 9.11929 13 10.5 13C11.8807 13 13 11.8807 13 10.5C13 9.11929 11.8807 8 10.5 8ZM10 10.5C10 10.2239 10.2239 10 10.5 10C10.7761 10 11 10.2239 11 10.5C11 10.7761 10.7761 11 10.5 11C10.2239 11 10 10.7761 10 10.5ZM8 16.5C8 15.1193 9.11929 14 10.5 14C11.8807 14 13 15.1193 13 16.5C13 17.8807 11.8807 19 10.5 19C9.11929 19 8 17.8807 8 16.5ZM10.5 16C10.2239 16 10 16.2239 10 16.5C10 16.7761 10.2239 17 10.5 17C10.7761 17 11 16.7761 11 16.5C11 16.2239 10.7761 16 10.5 16ZM16.5 14C15.1193 14 14 15.1193 14 16.5C14 17.8807 15.1193 19 16.5 19C17.8807 19 19 17.8807 19 16.5C19 15.1193 17.8807 14 16.5 14ZM16 16.5C16 16.2239 16.2239 16 16.5 16C16.7761 16 17 16.2239 17 16.5C17 16.7761 16.7761 17 16.5 17C16.2239 17 16 16.7761 16 16.5Z" fill="white"/>
</svg>
