<svg width="14" height="13" viewBox="0 0 14 13" fill="none" xmlns="http://www.w3.org/2000/svg">
<path fill-rule="evenodd" clip-rule="evenodd" d="M1.02167 1.56914C1.67604 0.912605 2.56344 0.543782 3.48872 0.543782C4.414 0.543782 5.3014 0.912605 5.95577 1.56914L6.97819 2.59438L8.0006 1.56914C8.64439 0.900175 9.55355 0.508214 10.4802 0.500132C11.4069 0.492051 12.3227 0.868095 12.978 1.52573C13.6332 2.18337 14.0079 3.1025 13.9999 4.03251C13.9918 4.96251 13.6013 5.87497 12.9347 6.52108L6.97819 12.5L1.02167 6.52108C0.367494 5.86434 0 4.97374 0 4.04511C0 3.11649 0.367494 2.22588 1.02167 1.56914Z" fill="white"/>
</svg>
