<svg width="29" height="29" viewBox="0 0 29 29" fill="none" xmlns="http://www.w3.org/2000/svg">
<rect width="28.4444" height="28.4444" rx="14.2222" fill="#0038FF"/>
<path d="M9.24368 8.4668C8.06537 8.4668 7.11035 9.42189 7.11035 10.6001V17.7113C7.11035 19.1335 7.82146 19.8446 9.24368 19.8446H19.1992C20.6215 19.8446 21.3326 19.1335 21.3326 17.7113V12.0224C21.3326 11.6296 21.014 11.3112 20.6215 11.3112H19.9104V9.17791C19.9104 8.78516 19.5918 8.4668 19.1992 8.4668H9.24368ZM9.24368 9.88902H18.4881V11.3112H9.24368C8.85115 11.3112 8.53257 10.9929 8.53257 10.6001C8.53257 10.2074 8.85115 9.88902 9.24368 9.88902ZM17.777 14.1557C18.1696 14.1557 18.4881 14.4741 18.4881 14.8668C18.4881 15.2596 18.1696 15.5779 17.777 15.5779C17.3845 15.5779 17.0659 15.2596 17.0659 14.8668C17.0659 14.4741 17.3845 14.1557 17.777 14.1557Z" fill="white"/>
</svg>
