
<svg width="479" height="14" viewBox="0 0 479 14" fill="none" xmlns="http://www.w3.org/2000/svg">
<path d="M0.36 1C0.24 1 0.18 1.06 0.18 1.18V3.052C0.18 3.172 0.24 3.232 0.36 3.232H5.1V12.82C5.1 12.94 5.16 13 5.28 13H7.32C7.44 13 7.5 12.94 7.5 12.82V3.232H12.24C12.36 3.232 12.42 3.172 12.42 3.052V1.18C12.42 1.06 12.36 1 12.24 1H0.36ZM24.7657 13C24.9217 13 24.9577 12.928 24.8977 12.784L22.8097 7.912C23.4697 7.636 23.9977 7.192 24.3937 6.604C24.7897 6.004 24.9937 5.332 24.9937 4.6C24.9937 3.604 24.6457 2.764 23.9377 2.056C23.2417 1.348 22.3897 1 21.3937 1H13.4977C13.3777 1 13.3177 1.06 13.3177 1.18V12.82C13.3177 12.94 13.3777 13 13.4977 13H15.5377C15.6577 13 15.7177 12.94 15.7177 12.82V8.2H20.3377L22.3177 12.856C22.3537 12.952 22.4257 13 22.5337 13H24.7657ZM21.3937 3.232C21.7417 3.232 22.0297 3.376 22.2577 3.664C22.4857 3.94 22.5937 4.252 22.5937 4.6C22.5937 4.948 22.4857 5.26 22.2577 5.548C22.0297 5.824 21.7417 5.968 21.3937 5.968H15.7177V3.232H21.3937ZM33.1153 1.144C33.0673 1.048 32.9953 1 32.8993 1H30.6913C30.4993 1 30.3913 1.048 30.3553 1.144L25.4593 12.796C25.3993 12.928 25.4473 13 25.6033 13H27.6313C27.7393 13 27.8113 12.952 27.8473 12.856L28.5673 11.104H34.5913L35.2633 12.856C35.2993 12.952 35.3713 13 35.4793 13H37.5073C37.6633 13 37.7113 12.928 37.6513 12.796L33.1153 1.144ZM29.4913 8.872L31.6993 3.556L33.7273 8.872H29.4913ZM49.493 13C49.613 13 49.673 12.94 49.673 12.82V1.18C49.673 1.06 49.613 1 49.493 1H47.453C47.333 1 47.273 1.06 47.273 1.18V9.304L40.997 1.096C40.937 1.036 40.865 1 40.781 1H38.693C38.573 1 38.513 1.06 38.513 1.18V12.82C38.513 12.94 38.573 13 38.693 13H40.733C40.853 13 40.913 12.94 40.913 12.82V4.696L47.189 12.904C47.249 12.964 47.321 13 47.405 13H49.493ZM62.5106 4.6C62.6306 4.6 62.6906 4.54 62.6906 4.42C62.6306 3.46 62.2466 2.656 61.5506 1.996C60.8666 1.336 60.0386 1 59.0906 1H54.2906C53.3066 1 52.4666 1.372 51.7586 2.104C51.0506 2.836 50.7026 3.688 50.7026 4.636C50.7026 5.56 51.0506 6.376 51.7586 7.072C52.4666 7.756 53.3186 8.104 54.2906 8.104H59.0906C59.4386 8.104 59.7266 8.236 59.9546 8.512C60.1946 8.788 60.3146 9.1 60.3146 9.46C60.3146 9.808 60.1946 10.108 59.9546 10.372C59.7266 10.636 59.4386 10.768 59.0906 10.768H54.2906C53.5706 10.768 53.1386 10.24 53.1026 9.58C53.0906 9.46 53.0186 9.4 52.9106 9.4H50.8706C50.7506 9.4 50.6906 9.46 50.6906 9.58C50.7506 10.552 51.1226 11.368 51.7826 12.028C52.4546 12.676 53.2946 13 54.2906 13H59.0906C60.1346 13 60.9986 12.628 61.6706 11.884C62.3426 11.14 62.6786 10.276 62.6786 9.304C62.6786 8.38 62.3306 7.588 61.6346 6.904C60.9386 6.22 60.0866 5.872 59.0906 5.872H54.2906C53.5706 5.872 53.1386 5.272 53.1386 4.564C53.1386 4.228 53.2466 3.928 53.4506 3.652C53.6666 3.376 53.9426 3.232 54.2906 3.232H59.0906C59.7266 3.232 60.1346 3.712 60.2786 4.42C60.2906 4.54 60.3506 4.6 60.4586 4.6H62.5106ZM66.1083 3.232H74.9883C75.1083 3.232 75.1683 3.172 75.1683 3.052V1.18C75.1683 1.06 75.1083 1 74.9883 1H63.8883C63.7683 1 63.7083 1.06 63.7083 1.18V12.82C63.7083 12.94 63.7683 13 63.8883 13H65.9283C66.0483 13 66.1083 12.94 66.1083 12.82V8.248H74.9883C75.1083 8.248 75.1683 8.188 75.1683 8.068V6.196C75.1683 6.076 75.1083 6.016 74.9883 6.016H66.1083V3.232ZM87.0819 3.976C86.5419 3.052 85.8219 2.32 84.8979 1.78C83.9739 1.24 82.9779 0.964 81.8859 0.964C80.7939 0.964 79.7979 1.24 78.8739 1.78C77.9499 2.32 77.2299 3.052 76.6899 3.976C76.1499 4.9 75.8859 5.908 75.8859 7C75.8859 8.092 76.1499 9.1 76.6899 10.024C77.2299 10.948 77.9499 11.692 78.8739 12.232C79.7979 12.772 80.7939 13.036 81.8859 13.036C82.9779 13.036 83.9739 12.772 84.8979 12.232C85.8219 11.692 86.5419 10.948 87.0819 10.024C87.6219 9.1 87.8859 8.092 87.8859 7C87.8859 5.908 87.6219 4.9 87.0819 3.976ZM84.4179 9.604C83.7099 10.348 82.8699 10.72 81.8859 10.72C80.9019 10.72 80.0499 10.348 79.3419 9.604C78.6339 8.86 78.2859 7.996 78.2859 7C78.2859 6.004 78.6339 5.14 79.3419 4.396C80.0499 3.652 80.9019 3.28 81.8859 3.28C82.8699 3.28 83.7099 3.652 84.4179 4.396C85.1259 5.14 85.4859 6.004 85.4859 7C85.4859 7.996 85.1259 8.86 84.4179 9.604ZM100.352 13C100.508 13 100.544 12.928 100.484 12.784L98.3956 7.912C99.0556 7.636 99.5836 7.192 99.9796 6.604C100.376 6.004 100.58 5.332 100.58 4.6C100.58 3.604 100.232 2.764 99.5236 2.056C98.8276 1.348 97.9756 1 96.9796 1H89.0836C88.9636 1 88.9036 1.06 88.9036 1.18V12.82C88.9036 12.94 88.9636 13 89.0836 13H91.1236C91.2436 13 91.3036 12.94 91.3036 12.82V8.2H95.9236L97.9036 12.856C97.9396 12.952 98.0116 13 98.1196 13H100.352ZM96.9796 3.232C97.3276 3.232 97.6156 3.376 97.8436 3.664C98.0716 3.94 98.1796 4.252 98.1796 4.6C98.1796 4.948 98.0716 5.26 97.8436 5.548C97.6156 5.824 97.3276 5.968 96.9796 5.968H91.3036V3.232H96.9796ZM112.541 13C112.661 13 112.721 12.94 112.721 12.82V1.18C112.721 1.06 112.661 1 112.541 1H110.477C110.369 1 110.297 1.048 110.261 1.144L107.081 9.64L103.961 1.144C103.925 1.048 103.853 1 103.745 1H101.681C101.561 1 101.501 1.06 101.501 1.18V12.82C101.501 12.94 101.561 13 101.681 13H103.721C103.841 13 103.901 12.94 103.901 12.82V7.144L105.821 12.856C105.857 12.952 105.929 13 106.037 13H108.125C108.233 13 108.305 12.952 108.341 12.856L110.321 7.144V12.82C110.321 12.94 110.381 13 110.501 13H112.541ZM125.499 3.232C125.619 3.232 125.679 3.172 125.679 3.052V1.18C125.679 1.06 125.619 1 125.499 1H113.859C113.739 1 113.679 1.06 113.679 1.18V3.052C113.679 3.172 113.739 3.232 113.859 3.232H118.479V10.768H113.859C113.739 10.768 113.679 10.828 113.679 10.948V12.82C113.679 12.94 113.739 13 113.859 13H125.499C125.619 13 125.679 12.94 125.679 12.82V10.948C125.679 10.828 125.619 10.768 125.499 10.768H120.879V3.232H125.499ZM137.677 13C137.797 13 137.857 12.94 137.857 12.82V1.18C137.857 1.06 137.797 1 137.677 1H135.637C135.517 1 135.457 1.06 135.457 1.18V9.304L129.181 1.096C129.121 1.036 129.049 1 128.965 1H126.877C126.757 1 126.697 1.06 126.697 1.18V12.82C126.697 12.94 126.757 13 126.877 13H128.917C129.037 13 129.097 12.94 129.097 12.82V4.696L135.373 12.904C135.433 12.964 135.505 13 135.589 13H137.677ZM150.694 10.6C150.814 10.6 150.874 10.54 150.874 10.42V8.536C150.874 8.416 150.814 8.356 150.694 8.356H146.254C146.134 8.356 146.074 8.416 146.074 8.536V10.384C145.654 10.612 145.246 10.72 144.874 10.72C143.89 10.72 143.038 10.348 142.33 9.604C141.622 8.86 141.274 7.996 141.274 7C141.274 6.004 141.622 5.14 142.33 4.396C143.038 3.652 143.89 3.28 144.874 3.28C145.618 3.28 146.29 3.508 146.878 3.952C147.478 4.396 147.922 4.972 148.198 5.656C148.246 5.752 148.318 5.8 148.414 5.8H150.55C150.694 5.8 150.742 5.728 150.706 5.596C150.382 4.264 149.686 3.16 148.594 2.284C147.514 1.408 146.278 0.964 144.874 0.964C143.782 0.964 142.786 1.24 141.862 1.78C140.938 2.32 140.218 3.052 139.678 3.976C139.138 4.9 138.874 5.908 138.874 7C138.874 8.092 139.138 9.1 139.678 10.024C140.218 10.948 140.938 11.692 141.862 12.232C142.786 12.772 143.782 13.036 144.874 13.036C146.794 13.036 148.534 12.1 149.674 10.6H150.694ZM166.89 3.232H175.53C175.65 3.232 175.71 3.172 175.71 3.052V1.18C175.71 1.06 175.65 1 175.53 1H164.67C164.55 1 164.49 1.06 164.49 1.18V12.82C164.49 12.94 164.55 13 164.67 13H175.53C175.65 13 175.71 12.94 175.71 12.82V10.948C175.71 10.828 175.65 10.768 175.53 10.768H166.89V8.032H175.53C175.65 8.032 175.71 7.972 175.71 7.852V5.98C175.71 5.86 175.65 5.8 175.53 5.8H166.89V3.232ZM187.431 6.748C187.431 6.676 187.383 6.64 187.275 6.64H178.059C177.951 6.64 177.903 6.676 177.903 6.748V7.192C177.903 7.264 177.951 7.3 178.059 7.3H187.275C187.383 7.3 187.431 7.264 187.431 7.192V6.748ZM198.805 8.2C198.709 8.2 198.637 8.248 198.589 8.344C198.313 9.028 197.869 9.604 197.269 10.06C196.681 10.504 196.009 10.732 195.265 10.732C194.281 10.732 193.429 10.36 192.721 9.616C192.013 8.86 191.665 7.996 191.665 7C191.665 6.004 192.013 5.14 192.721 4.396C193.429 3.652 194.281 3.28 195.265 3.28C196.009 3.28 196.681 3.508 197.269 3.952C197.869 4.396 198.313 4.972 198.589 5.656C198.637 5.752 198.709 5.8 198.805 5.8H200.941C201.085 5.8 201.133 5.728 201.097 5.596C200.773 4.264 200.077 3.16 198.985 2.284C197.905 1.408 196.669 0.964 195.265 0.964C194.173 0.964 193.177 1.24 192.253 1.78C191.329 2.32 190.609 3.052 190.069 3.976C189.529 4.9 189.265 5.908 189.265 7C189.265 8.092 189.529 9.1 190.069 10.024C190.609 10.948 191.329 11.692 192.253 12.232C193.177 12.772 194.173 13.036 195.265 13.036C196.669 13.036 197.905 12.592 198.985 11.716C200.077 10.84 200.773 9.736 201.097 8.404C201.133 8.272 201.085 8.2 200.941 8.2H198.805ZM213.059 3.976C212.519 3.052 211.799 2.32 210.875 1.78C209.951 1.24 208.955 0.964 207.863 0.964C206.771 0.964 205.775 1.24 204.851 1.78C203.927 2.32 203.207 3.052 202.667 3.976C202.127 4.9 201.863 5.908 201.863 7C201.863 8.092 202.127 9.1 202.667 10.024C203.207 10.948 203.927 11.692 204.851 12.232C205.775 12.772 206.771 13.036 207.863 13.036C208.955 13.036 209.951 12.772 210.875 12.232C211.799 11.692 212.519 10.948 213.059 10.024C213.599 9.1 213.863 8.092 213.863 7C213.863 5.908 213.599 4.9 213.059 3.976ZM210.395 9.604C209.687 10.348 208.847 10.72 207.863 10.72C206.879 10.72 206.027 10.348 205.319 9.604C204.611 8.86 204.263 7.996 204.263 7C204.263 6.004 204.611 5.14 205.319 4.396C206.027 3.652 206.879 3.28 207.863 3.28C208.847 3.28 209.687 3.652 210.395 4.396C211.103 5.14 211.463 6.004 211.463 7C211.463 7.996 211.103 8.86 210.395 9.604ZM225.92 13C226.04 13 226.1 12.94 226.1 12.82V1.18C226.1 1.06 226.04 1 225.92 1H223.856C223.748 1 223.676 1.048 223.64 1.144L220.46 9.64L217.34 1.144C217.304 1.048 217.232 1 217.124 1H215.06C214.94 1 214.88 1.06 214.88 1.18V12.82C214.88 12.94 214.94 13 215.06 13H217.1C217.22 13 217.28 12.94 217.28 12.82V7.144L219.2 12.856C219.236 12.952 219.308 13 219.416 13H221.504C221.612 13 221.684 12.952 221.72 12.856L223.7 7.144V12.82C223.7 12.94 223.76 13 223.88 13H225.92ZM238.518 13C238.638 13 238.698 12.94 238.698 12.82V1.18C238.698 1.06 238.638 1 238.518 1H236.454C236.346 1 236.274 1.048 236.238 1.144L233.058 9.64L229.938 1.144C229.902 1.048 229.83 1 229.722 1H227.658C227.538 1 227.478 1.06 227.478 1.18V12.82C227.478 12.94 227.538 13 227.658 13H229.698C229.818 13 229.878 12.94 229.878 12.82V7.144L231.798 12.856C231.834 12.952 231.906 13 232.014 13H234.102C234.21 13 234.282 12.952 234.318 12.856L236.298 7.144V12.82C236.298 12.94 236.358 13 236.478 13H238.518ZM242.475 3.232H251.115C251.235 3.232 251.295 3.172 251.295 3.052V1.18C251.295 1.06 251.235 1 251.115 1H240.255C240.135 1 240.075 1.06 240.075 1.18V12.82C240.075 12.94 240.135 13 240.255 13H251.115C251.235 13 251.295 12.94 251.295 12.82V10.948C251.295 10.828 251.235 10.768 251.115 10.768H242.475V8.032H251.115C251.235 8.032 251.295 7.972 251.295 7.852V5.98C251.295 5.86 251.235 5.8 251.115 5.8H242.475V3.232ZM264.121 13C264.277 13 264.313 12.928 264.253 12.784L262.165 7.912C262.825 7.636 263.353 7.192 263.749 6.604C264.145 6.004 264.349 5.332 264.349 4.6C264.349 3.604 264.001 2.764 263.293 2.056C262.597 1.348 261.745 1 260.749 1H252.853C252.733 1 252.673 1.06 252.673 1.18V12.82C252.673 12.94 252.733 13 252.853 13H254.893C255.013 13 255.073 12.94 255.073 12.82V8.2H259.693L261.673 12.856C261.709 12.952 261.781 13 261.889 13H264.121ZM260.749 3.232C261.097 3.232 261.385 3.376 261.613 3.664C261.841 3.94 261.949 4.252 261.949 4.6C261.949 4.948 261.841 5.26 261.613 5.548C261.385 5.824 261.097 5.968 260.749 5.968H255.073V3.232H260.749ZM274.391 8.2C274.295 8.2 274.223 8.248 274.175 8.344C273.899 9.028 273.455 9.604 272.855 10.06C272.267 10.504 271.595 10.732 270.851 10.732C269.867 10.732 269.015 10.36 268.307 9.616C267.599 8.86 267.251 7.996 267.251 7C267.251 6.004 267.599 5.14 268.307 4.396C269.015 3.652 269.867 3.28 270.851 3.28C271.595 3.28 272.267 3.508 272.855 3.952C273.455 4.396 273.899 4.972 274.175 5.656C274.223 5.752 274.295 5.8 274.391 5.8H276.527C276.671 5.8 276.719 5.728 276.683 5.596C276.359 4.264 275.663 3.16 274.571 2.284C273.491 1.408 272.255 0.964 270.851 0.964C269.759 0.964 268.763 1.24 267.839 1.78C266.915 2.32 266.195 3.052 265.655 3.976C265.115 4.9 264.851 5.908 264.851 7C264.851 8.092 265.115 9.1 265.655 10.024C266.195 10.948 266.915 11.692 267.839 12.232C268.763 12.772 269.759 13.036 270.851 13.036C272.255 13.036 273.491 12.592 274.571 11.716C275.663 10.84 276.359 9.736 276.683 8.404C276.719 8.272 276.671 8.2 276.527 8.2H274.391ZM280.268 3.232H288.908C289.028 3.232 289.088 3.172 289.088 3.052V1.18C289.088 1.06 289.028 1 288.908 1H278.048C277.928 1 277.868 1.06 277.868 1.18V12.82C277.868 12.94 277.928 13 278.048 13H288.908C289.028 13 289.088 12.94 289.088 12.82V10.948C289.088 10.828 289.028 10.768 288.908 10.768H280.268V8.032H288.908C289.028 8.032 289.088 7.972 289.088 7.852V5.98C289.088 5.86 289.028 5.8 288.908 5.8H280.268V3.232ZM302.704 1C302.584 1 302.524 1.06 302.524 1.18V3.052C302.524 3.172 302.584 3.232 302.704 3.232H307.444V12.82C307.444 12.94 307.504 13 307.624 13H309.664C309.784 13 309.844 12.94 309.844 12.82V3.232H314.584C314.704 3.232 314.764 3.172 314.764 3.052V1.18C314.764 1.06 314.704 1 314.584 1H302.704ZM326.437 3.976C325.897 3.052 325.177 2.32 324.253 1.78C323.329 1.24 322.333 0.964 321.241 0.964C320.149 0.964 319.153 1.24 318.229 1.78C317.305 2.32 316.585 3.052 316.045 3.976C315.505 4.9 315.241 5.908 315.241 7C315.241 8.092 315.505 9.1 316.045 10.024C316.585 10.948 317.305 11.692 318.229 12.232C319.153 12.772 320.149 13.036 321.241 13.036C322.333 13.036 323.329 12.772 324.253 12.232C325.177 11.692 325.897 10.948 326.437 10.024C326.977 9.1 327.241 8.092 327.241 7C327.241 5.908 326.977 4.9 326.437 3.976ZM323.773 9.604C323.065 10.348 322.225 10.72 321.241 10.72C320.257 10.72 319.405 10.348 318.697 9.604C317.989 8.86 317.641 7.996 317.641 7C317.641 6.004 317.989 5.14 318.697 4.396C319.405 3.652 320.257 3.28 321.241 3.28C322.225 3.28 323.065 3.652 323.773 4.396C324.481 5.14 324.841 6.004 324.841 7C324.841 7.996 324.481 8.86 323.773 9.604ZM352.317 5.8C352.317 4.48 351.849 3.352 350.901 2.416C349.965 1.468 348.837 1 347.517 1H341.037C340.917 1 340.857 1.06 340.857 1.18V12.82C340.857 12.94 340.917 13 341.037 13H347.517C348.837 13 349.965 12.532 350.901 11.596C351.849 10.648 352.317 9.52 352.317 8.2V5.8ZM349.917 8.2C349.917 8.872 349.677 9.472 349.197 9.988C348.729 10.504 348.165 10.768 347.517 10.768H343.257V3.232H347.517C348.165 3.232 348.729 3.496 349.197 4.012C349.677 4.528 349.917 5.128 349.917 5.8V8.2ZM355.854 3.232H364.494C364.614 3.232 364.674 3.172 364.674 3.052V1.18C364.674 1.06 364.614 1 364.494 1H353.634C353.514 1 353.454 1.06 353.454 1.18V12.82C353.454 12.94 353.514 13 353.634 13H364.494C364.614 13 364.674 12.94 364.674 12.82V10.948C364.674 10.828 364.614 10.768 364.494 10.768H355.854V8.032H364.494C364.614 8.032 364.674 7.972 364.674 7.852V5.98C364.674 5.86 364.614 5.8 364.494 5.8H355.854V3.232ZM376.396 6.748C376.396 6.676 376.348 6.64 376.24 6.64H367.024C366.916 6.64 366.868 6.676 366.868 6.748V7.192C366.868 7.264 366.916 7.3 367.024 7.3H376.24C376.348 7.3 376.396 7.264 376.396 7.192V6.748ZM387.77 8.2C387.674 8.2 387.602 8.248 387.554 8.344C387.278 9.028 386.834 9.604 386.234 10.06C385.646 10.504 384.974 10.732 384.23 10.732C383.246 10.732 382.394 10.36 381.686 9.616C380.978 8.86 380.63 7.996 380.63 7C380.63 6.004 380.978 5.14 381.686 4.396C382.394 3.652 383.246 3.28 384.23 3.28C384.974 3.28 385.646 3.508 386.234 3.952C386.834 4.396 387.278 4.972 387.554 5.656C387.602 5.752 387.674 5.8 387.77 5.8H389.906C390.05 5.8 390.098 5.728 390.062 5.596C389.738 4.264 389.042 3.16 387.95 2.284C386.87 1.408 385.634 0.964 384.23 0.964C383.138 0.964 382.142 1.24 381.218 1.78C380.294 2.32 379.574 3.052 379.034 3.976C378.494 4.9 378.23 5.908 378.23 7C378.23 8.092 378.494 9.1 379.034 10.024C379.574 10.948 380.294 11.692 381.218 12.232C382.142 12.772 383.138 13.036 384.23 13.036C385.634 13.036 386.87 12.592 387.95 11.716C389.042 10.84 389.738 9.736 390.062 8.404C390.098 8.272 390.05 8.2 389.906 8.2H387.77ZM402.023 3.976C401.483 3.052 400.763 2.32 399.839 1.78C398.915 1.24 397.919 0.964 396.827 0.964C395.735 0.964 394.739 1.24 393.815 1.78C392.891 2.32 392.171 3.052 391.631 3.976C391.091 4.9 390.827 5.908 390.827 7C390.827 8.092 391.091 9.1 391.631 10.024C392.171 10.948 392.891 11.692 393.815 12.232C394.739 12.772 395.735 13.036 396.827 13.036C397.919 13.036 398.915 12.772 399.839 12.232C400.763 11.692 401.483 10.948 402.023 10.024C402.563 9.1 402.827 8.092 402.827 7C402.827 5.908 402.563 4.9 402.023 3.976ZM399.359 9.604C398.651 10.348 397.811 10.72 396.827 10.72C395.843 10.72 394.991 10.348 394.283 9.604C393.575 8.86 393.227 7.996 393.227 7C393.227 6.004 393.575 5.14 394.283 4.396C394.991 3.652 395.843 3.28 396.827 3.28C397.811 3.28 398.651 3.652 399.359 4.396C400.067 5.14 400.427 6.004 400.427 7C400.427 7.996 400.067 8.86 399.359 9.604ZM414.885 13C415.005 13 415.065 12.94 415.065 12.82V1.18C415.065 1.06 415.005 1 414.885 1H412.821C412.713 1 412.641 1.048 412.605 1.144L409.425 9.64L406.305 1.144C406.269 1.048 406.197 1 406.089 1H404.025C403.905 1 403.845 1.06 403.845 1.18V12.82C403.845 12.94 403.905 13 404.025 13H406.065C406.185 13 406.245 12.94 406.245 12.82V7.144L408.165 12.856C408.201 12.952 408.273 13 408.381 13H410.469C410.577 13 410.649 12.952 410.685 12.856L412.665 7.144V12.82C412.665 12.94 412.725 13 412.845 13H414.885ZM427.483 13C427.603 13 427.663 12.94 427.663 12.82V1.18C427.663 1.06 427.603 1 427.483 1H425.419C425.311 1 425.239 1.048 425.203 1.144L422.023 9.64L418.903 1.144C418.867 1.048 418.795 1 418.687 1H416.623C416.503 1 416.443 1.06 416.443 1.18V12.82C416.443 12.94 416.503 13 416.623 13H418.663C418.783 13 418.843 12.94 418.843 12.82V7.144L420.763 12.856C420.799 12.952 420.871 13 420.979 13H423.067C423.175 13 423.247 12.952 423.283 12.856L425.263 7.144V12.82C425.263 12.94 425.323 13 425.443 13H427.483ZM431.44 3.232H440.08C440.2 3.232 440.26 3.172 440.26 3.052V1.18C440.26 1.06 440.2 1 440.08 1H429.22C429.1 1 429.04 1.06 429.04 1.18V12.82C429.04 12.94 429.1 13 429.22 13H440.08C440.2 13 440.26 12.94 440.26 12.82V10.948C440.26 10.828 440.2 10.768 440.08 10.768H431.44V8.032H440.08C440.2 8.032 440.26 7.972 440.26 7.852V5.98C440.26 5.86 440.2 5.8 440.08 5.8H431.44V3.232ZM453.086 13C453.242 13 453.278 12.928 453.218 12.784L451.13 7.912C451.79 7.636 452.318 7.192 452.714 6.604C453.11 6.004 453.314 5.332 453.314 4.6C453.314 3.604 452.966 2.764 452.258 2.056C451.562 1.348 450.71 1 449.714 1H441.818C441.698 1 441.638 1.06 441.638 1.18V12.82C441.638 12.94 441.698 13 441.818 13H443.858C443.978 13 444.038 12.94 444.038 12.82V8.2H448.658L450.638 12.856C450.674 12.952 450.746 13 450.854 13H453.086ZM449.714 3.232C450.062 3.232 450.35 3.376 450.578 3.664C450.806 3.94 450.914 4.252 450.914 4.6C450.914 4.948 450.806 5.26 450.578 5.548C450.35 5.824 450.062 5.968 449.714 5.968H444.038V3.232H449.714ZM463.356 8.2C463.26 8.2 463.188 8.248 463.14 8.344C462.864 9.028 462.42 9.604 461.82 10.06C461.232 10.504 460.56 10.732 459.816 10.732C458.832 10.732 457.98 10.36 457.272 9.616C456.564 8.86 456.216 7.996 456.216 7C456.216 6.004 456.564 5.14 457.272 4.396C457.98 3.652 458.832 3.28 459.816 3.28C460.56 3.28 461.232 3.508 461.82 3.952C462.42 4.396 462.864 4.972 463.14 5.656C463.188 5.752 463.26 5.8 463.356 5.8H465.492C465.636 5.8 465.684 5.728 465.648 5.596C465.324 4.264 464.628 3.16 463.536 2.284C462.456 1.408 461.22 0.964 459.816 0.964C458.724 0.964 457.728 1.24 456.804 1.78C455.88 2.32 455.16 3.052 454.62 3.976C454.08 4.9 453.816 5.908 453.816 7C453.816 8.092 454.08 9.1 454.62 10.024C455.16 10.948 455.88 11.692 456.804 12.232C457.728 12.772 458.724 13.036 459.816 13.036C461.22 13.036 462.456 12.592 463.536 11.716C464.628 10.84 465.324 9.736 465.648 8.404C465.684 8.272 465.636 8.2 465.492 8.2H463.356ZM469.233 3.232H477.873C477.993 3.232 478.053 3.172 478.053 3.052V1.18C478.053 1.06 477.993 1 477.873 1H467.013C466.893 1 466.833 1.06 466.833 1.18V12.82C466.833 12.94 466.893 13 467.013 13H477.873C477.993 13 478.053 12.94 478.053 12.82V10.948C478.053 10.828 477.993 10.768 477.873 10.768H469.233V8.032H477.873C477.993 8.032 478.053 7.972 478.053 7.852V5.98C478.053 5.86 477.993 5.8 477.873 5.8H469.233V3.232Z" fill="url(#paint0_diamond_2245_22670)"/>
<defs>
<radialGradient id="paint0_diamond_2245_22670" cx="0" cy="0" r="1" gradientUnits="userSpaceOnUse" gradientTransform="translate(105.962 -7.54168) rotate(2.84829) scale(493.879 240.049)">
<stop stop-color="#0038FF"/>
<stop offset="0.351797" stop-color="#FA00FF"/>
<stop offset="0.692703" stop-color="#00FFFF"/>
<stop offset="1" stop-color="#00FF47"/>
</radialGradient>
</defs>
</svg>
