<svg width="271" height="49" viewBox="0 0 271 49" fill="none" xmlns="http://www.w3.org/2000/svg">
<path d="M92.1889 7.20785C92.0334 6.897 91.8003 6.74157 91.4894 6.74157H84.3398C83.7181 6.74157 83.3684 6.897 83.2518 7.20785L67.3983 44.9376C67.2041 45.365 67.3595 45.5982 67.8646 45.5982H74.4314C74.7811 45.5982 75.0142 45.4428 75.1308 45.1319L77.4622 39.4588H96.9682L99.1442 45.1319C99.2608 45.4428 99.4939 45.5982 99.8436 45.5982H106.41C106.916 45.5982 107.071 45.365 106.877 44.9376L92.1889 7.20785ZM80.4542 32.2315L87.6038 15.018L94.1705 32.2315H80.4542Z" fill="white"/>
<path d="M146.736 45.5982C147.241 45.5982 147.358 45.365 147.163 44.8988L140.402 29.123C142.539 28.2293 144.249 26.7916 145.531 24.8876C146.814 22.9448 147.474 20.7688 147.474 18.3986C147.474 15.1735 146.347 12.4535 144.055 10.1609C141.801 7.86841 139.042 6.74157 135.817 6.74157H110.25C109.861 6.74157 109.667 6.93585 109.667 7.32442V45.0153C109.667 45.4039 109.861 45.5982 110.25 45.5982H116.855C117.244 45.5982 117.438 45.4039 117.438 45.0153V30.0555H132.398L138.809 45.1319C138.926 45.4428 139.159 45.5982 139.509 45.5982H146.736ZM135.817 13.9689C136.944 13.9689 137.877 14.4352 138.615 15.3677C139.353 16.2614 139.703 17.2717 139.703 18.3986C139.703 19.5254 139.353 20.5357 138.615 21.4682C137.877 22.3619 136.944 22.8282 135.817 22.8282H117.438V13.9689H135.817Z" fill="white"/>
<path d="M179.99 30.0555C179.679 30.0555 179.446 30.211 179.29 30.5218C178.397 32.7366 176.959 34.6018 175.016 36.0783C173.112 37.516 170.936 38.2543 168.527 38.2543C165.341 38.2543 162.582 37.0497 160.289 34.6406C157.997 32.1927 156.87 29.395 156.87 26.1699C156.87 22.9448 157.997 20.1471 160.289 17.738C162.582 15.3289 165.341 14.1243 168.527 14.1243C170.936 14.1243 173.112 14.8626 175.016 16.3003C176.959 17.738 178.397 19.6031 179.29 21.8179C179.446 22.1288 179.679 22.2842 179.99 22.2842H186.906C187.372 22.2842 187.528 22.0511 187.411 21.6237C186.362 17.3106 184.108 13.7358 180.572 10.8992C177.075 8.06269 173.073 6.625 168.527 6.625C164.991 6.625 161.766 7.5187 158.774 9.26725C155.782 11.0158 153.451 13.3861 151.702 16.378C149.953 19.37 149.099 22.6339 149.099 26.1699C149.099 29.7058 149.953 32.9698 151.702 35.9617C153.451 38.9537 155.782 41.3628 158.774 43.1114C161.766 44.8599 164.991 45.7148 168.527 45.7148C173.073 45.7148 177.075 44.2771 180.572 41.4405C184.108 38.604 186.362 35.0292 187.411 30.7161C187.528 30.2887 187.372 30.0555 186.906 30.0555H179.99Z" fill="white"/>
<path d="M226.804 45.5982C227.193 45.5982 227.387 45.4039 227.387 45.0153V7.32442C227.387 6.93585 227.193 6.74157 226.804 6.74157H220.199C219.81 6.74157 219.616 6.93585 219.616 7.32442V22.7505H199.022V7.32442C199.022 6.93585 198.828 6.74157 198.439 6.74157H191.833C191.445 6.74157 191.25 6.93585 191.25 7.32442V45.0153C191.25 45.4039 191.445 45.5982 191.833 45.5982H198.439C198.828 45.5982 199.022 45.4039 199.022 45.0153V29.9778H219.616V45.0153C219.616 45.4039 219.81 45.5982 220.199 45.5982H226.804Z" fill="white"/>
<path d="M239.814 13.9689H267.79C268.179 13.9689 268.373 13.7746 268.373 13.3861V7.32442C268.373 6.93585 268.179 6.74157 267.79 6.74157H232.625C232.237 6.74157 232.042 6.93585 232.042 7.32442V45.0153C232.042 45.4039 232.237 45.5982 232.625 45.5982H267.79C268.179 45.5982 268.373 45.4039 268.373 45.0153V38.9537C268.373 38.5651 268.179 38.3709 267.79 38.3709H239.814V29.5115H267.79C268.179 29.5115 268.373 29.3173 268.373 28.9287V22.8671C268.373 22.4785 268.179 22.2842 267.79 22.2842H239.814V13.9689Z" fill="white"/>
<rect x="33.9375" y="0.131836" width="17.6103" height="11.0065" transform="rotate(60 33.9375 0.131836)" fill="#00FFFF"/>
<rect x="48.2471" y="24.915" width="17.6103" height="11.0065" transform="rotate(60 48.2471 24.915)" fill="#FA00FF"/>
<rect x="63.4971" y="16.1074" width="17.6103" height="11.0065" transform="rotate(150 63.4971 16.1074)" fill="#00FF47"/>
<rect x="38.7148" y="30.4189" width="35.2207" height="11.0065" transform="rotate(150 38.7148 30.4189)" fill="#0038FF"/>
</svg>
