<svg width="209" height="52" viewBox="0 0 209 52" fill="none" xmlns="http://www.w3.org/2000/svg">
<path d="M57.013 15.3505C56.9175 15.1594 56.7741 15.0639 56.583 15.0639H52.1873C51.8051 15.0639 51.5901 15.1594 51.5184 15.3505L41.7714 38.5474C41.652 38.8101 41.7476 38.9535 42.0581 38.9535H46.0955C46.3105 38.9535 46.4538 38.8579 46.5255 38.6668L47.9589 35.1789H59.9515L61.2893 38.6668C61.3609 38.8579 61.5043 38.9535 61.7193 38.9535H65.7566C66.0672 38.9535 66.1628 38.8101 66.0433 38.5474L57.013 15.3505ZM49.7984 30.7355L54.1941 20.1523L58.2314 30.7355H49.7984Z" fill="white"/>
<path d="M90.5494 38.9535C90.86 38.9535 90.9316 38.8101 90.8122 38.5235L86.6554 28.8243C87.9693 28.2748 89.0205 27.3909 89.8088 26.2203C90.5972 25.0258 91.0033 23.688 91.0033 22.2307C91.0033 20.2479 90.3105 18.5756 88.901 17.1661C87.5154 15.7567 85.8193 15.0639 83.8364 15.0639H68.117C67.8781 15.0639 67.7587 15.1833 67.7587 15.4222V38.5951C67.7587 38.834 67.8781 38.9535 68.117 38.9535H72.1783C72.4172 38.9535 72.5366 38.834 72.5366 38.5951V29.3976H81.7341L85.6759 38.6668C85.7476 38.8579 85.8909 38.9535 86.1059 38.9535H90.5494ZM83.8364 19.5073C84.5292 19.5073 85.1026 19.794 85.5565 20.3674C86.0104 20.9168 86.2254 21.5379 86.2254 22.2307C86.2254 22.9235 86.0104 23.5447 85.5565 24.118C85.1026 24.6675 84.5292 24.9542 83.8364 24.9542H72.5366V19.5073H83.8364Z" fill="white"/>
<path d="M110.994 29.3976C110.803 29.3976 110.66 29.4932 110.564 29.6843C110.015 31.046 109.131 32.1927 107.936 33.1005C106.766 33.9844 105.428 34.4383 103.947 34.4383C101.988 34.4383 100.292 33.6978 98.8822 32.2166C97.4727 30.7116 96.7799 28.9915 96.7799 27.0087C96.7799 25.0258 97.4727 23.3058 98.8822 21.8246C100.292 20.3435 101.988 19.6029 103.947 19.6029C105.428 19.6029 106.766 20.0568 107.936 20.9407C109.131 21.8246 110.015 22.9713 110.564 24.333C110.66 24.5241 110.803 24.6197 110.994 24.6197H115.247C115.533 24.6197 115.629 24.4764 115.557 24.2136C114.912 21.5618 113.527 19.364 111.353 17.62C109.203 15.8761 106.742 14.9922 103.947 14.9922C101.773 14.9922 99.79 15.5416 97.9505 16.6167C96.111 17.6917 94.6776 19.149 93.6026 20.9885C92.5276 22.828 92.002 24.8347 92.002 27.0087C92.002 29.1826 92.5276 31.1894 93.6026 33.0289C94.6776 34.8684 96.111 36.3495 97.9505 37.4245C99.79 38.4996 101.773 39.0251 103.947 39.0251C106.742 39.0251 109.203 38.1412 111.353 36.3973C113.527 34.6533 114.912 32.4555 115.557 29.8038C115.629 29.541 115.533 29.3976 115.247 29.3976H110.994Z" fill="white"/>
<path d="M139.777 38.9535C140.015 38.9535 140.135 38.834 140.135 38.5951V15.4222C140.135 15.1833 140.015 15.0639 139.777 15.0639H135.715C135.476 15.0639 135.357 15.1833 135.357 15.4222V24.9064H122.696V15.4222C122.696 15.1833 122.576 15.0639 122.337 15.0639H118.276C118.037 15.0639 117.918 15.1833 117.918 15.4222V38.5951C117.918 38.834 118.037 38.9535 118.276 38.9535H122.337C122.576 38.9535 122.696 38.834 122.696 38.5951V29.3499H135.357V38.5951C135.357 38.834 135.476 38.9535 135.715 38.9535H139.777Z" fill="white"/>
<path d="M147.775 19.5073H164.975C165.214 19.5073 165.334 19.3879 165.334 19.149V15.4222C165.334 15.1833 165.214 15.0639 164.975 15.0639H143.355C143.116 15.0639 142.997 15.1833 142.997 15.4222V38.5951C142.997 38.834 143.116 38.9535 143.355 38.9535H164.975C165.214 38.9535 165.334 38.834 165.334 38.5951V34.8684C165.334 34.6295 165.214 34.51 164.975 34.51H147.775V29.0632H164.975C165.214 29.0632 165.334 28.9437 165.334 28.7048V24.9781C165.334 24.7392 165.214 24.6197 164.975 24.6197H147.775V19.5073Z" fill="white"/>
<rect x="21.1992" y="11" width="10.8271" height="6.76693" transform="rotate(60 21.1992 11)" fill="#00FFFF"/>
<rect x="29.9971" y="26.2373" width="10.8271" height="6.76693" transform="rotate(60 29.9971 26.2373)" fill="#FA00FF"/>
<rect x="39.373" y="20.8228" width="10.8271" height="6.76693" transform="rotate(150 39.373 20.8228)" fill="#00FF47"/>
<rect x="24.1367" y="29.6206" width="21.6542" height="6.76693" transform="rotate(150 24.1367 29.6206)" fill="#0038FF"/>
<path fill-rule="evenodd" clip-rule="evenodd" d="M207 14H169V27V40H195V27H207V14Z" fill="#0038FF"/>
<path d="M177.532 18.6681V19.5561C177.1 18.9081 176.32 18.5361 175.468 18.5361C173.812 18.5361 172.54 19.8681 172.54 21.5841C172.54 23.3121 173.812 24.6321 175.468 24.6321C176.32 24.6321 177.112 24.2121 177.532 23.5641V24.5001H178.552V18.6681H177.532ZM177.592 21.5841C177.592 22.7601 176.728 23.6841 175.588 23.6841C174.448 23.6841 173.584 22.7601 173.584 21.5841C173.584 20.4081 174.448 19.4841 175.588 19.4841C176.728 19.4841 177.592 20.4081 177.592 21.5841Z" fill="white"/>
<path d="M180.472 16.1001V24.5001H181.504V16.1001H180.472Z" fill="white"/>
<path d="M184.445 26.9961V23.6241C184.877 24.2601 185.657 24.6321 186.509 24.6321C188.165 24.6321 189.437 23.3001 189.437 21.5841C189.437 19.8561 188.165 18.5361 186.509 18.5361C185.657 18.5361 184.865 18.9561 184.445 19.5921V18.6681H183.425V26.9961H184.445ZM188.393 21.5841C188.393 22.7601 187.529 23.6841 186.389 23.6841C185.249 23.6841 184.385 22.7601 184.385 21.5841C184.385 20.4081 185.249 19.4841 186.389 19.4841C187.529 19.4841 188.393 20.4081 188.393 21.5841Z" fill="white"/>
<path d="M191.969 21.4521C191.969 20.2641 192.617 19.4961 193.613 19.4961C194.609 19.4961 195.149 20.1561 195.149 21.2001V24.5001H196.181V21.0801C196.181 19.5321 195.317 18.5361 193.829 18.5361C192.953 18.5361 192.329 18.9321 191.969 19.5081V16.1001H190.937V24.5001H191.969V21.4521Z" fill="white"/>
<path d="M202.587 18.6681V19.5561C202.155 18.9081 201.375 18.5361 200.523 18.5361C198.867 18.5361 197.595 19.8681 197.595 21.5841C197.595 23.3121 198.867 24.6321 200.523 24.6321C201.375 24.6321 202.167 24.2121 202.587 23.5641V24.5001H203.607V18.6681H202.587ZM202.647 21.5841C202.647 22.7601 201.783 23.6841 200.643 23.6841C199.503 23.6841 198.639 22.7601 198.639 21.5841C198.639 20.4081 199.503 19.4841 200.643 19.4841C201.783 19.4841 202.647 20.4081 202.647 21.5841Z" fill="white"/>
<path d="M173.188 29.9161V31.6681H172.288V32.5921H173.188V35.8201C173.188 36.9481 173.848 37.6321 174.952 37.6321C175.348 37.6321 175.648 37.5601 175.852 37.4521V36.4921C175.672 36.6121 175.42 36.6721 175.192 36.6721C174.52 36.6721 174.22 36.3601 174.22 35.6761V32.5921H175.852V31.6681H174.22V29.9161H173.188Z" fill="white"/>
<path d="M179.723 37.6321C180.899 37.6321 181.787 37.0201 182.267 36.1441L181.427 35.7121C181.055 36.2881 180.611 36.7081 179.735 36.7081C178.727 36.7081 177.851 35.9401 177.779 34.9081H182.471C182.471 34.9081 182.483 34.7641 182.483 34.5361C182.483 32.8801 181.295 31.5361 179.651 31.5361C177.995 31.5361 176.747 32.8441 176.747 34.5841C176.747 36.3601 177.995 37.6321 179.723 37.6321ZM177.803 34.0561C177.899 33.2641 178.679 32.4361 179.627 32.4361C180.587 32.4361 181.331 33.1321 181.439 34.0561H177.803Z" fill="white"/>
<path d="M183.435 36.0481C183.699 37.0081 184.539 37.6321 185.619 37.6321C186.759 37.6321 187.635 36.8881 187.635 35.8561C187.635 35.0881 187.167 34.5121 186.111 34.1521L185.511 33.9481C184.923 33.7441 184.659 33.4801 184.659 33.1321C184.659 32.7121 185.031 32.4241 185.511 32.4241C186.027 32.4241 186.423 32.7481 186.627 33.3121L187.527 32.9521C187.215 32.0761 186.483 31.5361 185.535 31.5361C184.455 31.5361 183.639 32.2201 183.639 33.2041C183.639 33.9481 184.095 34.5121 185.139 34.8601L185.787 35.0761C186.351 35.2681 186.615 35.5201 186.615 35.9161C186.615 36.4321 186.135 36.7321 185.643 36.7321C185.031 36.7321 184.527 36.3241 184.347 35.7001L183.435 36.0481Z" fill="white"/>
<path d="M189.254 29.9161V31.6681H188.354V32.5921H189.254V35.8201C189.254 36.9481 189.914 37.6321 191.018 37.6321C191.414 37.6321 191.714 37.5601 191.918 37.4521V36.4921C191.738 36.6121 191.486 36.6721 191.258 36.6721C190.586 36.6721 190.286 36.3601 190.286 35.6761V32.5921H191.918V31.6681H190.286V29.9161H189.254Z" fill="white"/>
</svg>
