<svg width="176" height="16" viewBox="0 0 176 16" fill="none" xmlns="http://www.w3.org/2000/svg">
<path d="M19.096 15C19.278 15 19.32 14.916 19.25 14.748L16.814 9.064C17.584 8.742 18.2 8.224 18.662 7.538C19.124 6.838 19.362 6.054 19.362 5.2C19.362 4.038 18.956 3.058 18.13 2.232C17.318 1.406 16.324 1 15.162 1H1.05C0.91 1 0.84 1.07 0.84 1.21V14.79C0.84 14.93 0.91 15 1.05 15H3.43C3.57 15 3.64 14.93 3.64 14.79V9.4H13.93L16.24 14.832C16.282 14.944 16.366 15 16.492 15H19.096ZM15.162 3.562C15.554 3.562 15.89 3.73 16.156 4.08C16.422 4.416 16.562 4.794 16.562 5.2C16.562 5.606 16.422 5.984 16.156 6.334C15.89 6.67 15.554 6.838 15.162 6.838H3.64V3.562H15.162ZM23.5255 3.562H38.2255C38.3655 3.562 38.4355 3.492 38.4355 3.352V1.21C38.4355 1.07 38.3655 1 38.2255 1H20.9355C20.7955 1 20.7255 1.07 20.7255 1.21V14.79C20.7255 14.93 20.7955 15 20.9355 15H38.2255C38.3655 15 38.4355 14.93 38.4355 14.79V12.648C38.4355 12.508 38.3655 12.438 38.2255 12.438H23.5255V9.26H38.2255C38.3655 9.26 38.4355 9.19 38.4355 9.05V6.908C38.4355 6.768 38.3655 6.698 38.2255 6.698H23.5255V3.562ZM55.6049 9.4C55.5209 9.4 55.4369 9.456 55.3669 9.568C54.2609 11.514 52.3569 12.396 49.2069 12.396H48.8149C47.3029 12.382 45.8329 12.032 44.5309 11.374C43.2429 10.702 42.3749 9.498 42.3609 8C42.3749 6.502 43.2429 5.298 44.5309 4.64C45.8329 3.968 47.3029 3.618 48.8149 3.604H49.2069C52.3569 3.604 54.2609 4.486 55.3669 6.432C55.4369 6.544 55.5209 6.6 55.6049 6.6H58.1109C58.2929 6.6 58.3489 6.53 58.3069 6.376C57.7329 4.612 56.6549 3.268 55.0869 2.344C53.5329 1.42 51.5869 0.958 49.2629 0.958H49.2209H48.8009C46.4349 1 44.3629 1.476 42.6409 2.47C40.9189 3.436 39.7989 5.13 39.5889 7.3C39.5749 7.58 39.5609 7.804 39.5609 7.972V8V8.028C39.5609 8.196 39.5749 8.42 39.5889 8.7C39.7989 10.87 40.9189 12.55 42.6409 13.544C44.3629 14.51 46.4349 15 48.8009 15.042H49.2209H49.2629C51.5869 15.042 53.5329 14.58 55.0869 13.656C56.6549 12.732 57.7329 11.388 58.3069 9.624C58.3489 9.47 58.2929 9.4 58.1109 9.4H55.6049ZM78.0664 8C78.0664 7.804 78.0664 7.664 78.0524 7.566C77.9264 5.312 76.8064 3.534 75.0704 2.526C73.3484 1.504 71.2484 1 68.8264 0.958H68.4064C65.9844 1 63.8844 1.504 62.1484 2.526C60.4264 3.534 59.3064 5.312 59.1804 7.566C59.1664 7.664 59.1664 7.804 59.1664 8V8.014V8.028C59.1664 8.224 59.1664 8.364 59.1804 8.462C59.3064 10.716 60.4264 12.48 62.1484 13.502C63.8844 14.51 65.9844 15 68.4064 15.042H68.8264C71.2484 15 73.3484 14.51 75.0704 13.502C76.8064 12.48 77.9264 10.716 78.0524 8.462C78.0664 8.364 78.0664 8.224 78.0664 8.028V8.014V8ZM68.4204 12.41C66.9084 12.396 65.4384 12.046 64.1364 11.388C62.8484 10.716 61.9664 9.512 61.9664 8.014C61.9664 6.516 62.8484 5.298 64.1364 4.64C65.4384 3.968 66.9084 3.618 68.4204 3.604H68.8124C70.3244 3.618 71.7944 3.968 73.0824 4.64C74.3844 5.298 75.2664 6.516 75.2664 8.014C75.2664 9.512 74.3844 10.716 73.0824 11.388C71.7944 12.046 70.3244 12.396 68.8124 12.41H68.4204ZM94.5919 1C94.4939 1 94.4379 1.028 94.4099 1.084L88.2219 11.724L82.0339 1.084C82.0059 1.028 81.9499 1 81.8519 1H79.4719C79.3319 1 79.2619 1.07 79.2619 1.21V14.79C79.2619 14.93 79.3319 15 79.4719 15H81.8519C81.9919 15 82.0619 14.93 82.0619 14.79V6.586C82.0759 6.642 82.1039 6.684 82.1179 6.726L86.7239 14.86C86.7799 14.958 86.8639 15 86.9759 15H89.4399C89.5519 15 89.6359 14.958 89.6919 14.86L94.3119 6.726C94.3539 6.642 94.3819 6.558 94.3819 6.46V14.79C94.3819 14.93 94.4519 15 94.5919 15H96.9719C97.1119 15 97.1819 14.93 97.1819 14.79V1.21C97.1819 1.07 97.1119 1 96.9719 1H94.5919ZM114.197 1C114.099 1 114.043 1.028 114.015 1.084L107.827 11.724L101.639 1.084C101.611 1.028 101.555 1 101.457 1H99.0773C98.9373 1 98.8673 1.07 98.8673 1.21V14.79C98.8673 14.93 98.9373 15 99.0773 15H101.457C101.597 15 101.667 14.93 101.667 14.79V6.586C101.681 6.642 101.709 6.684 101.723 6.726L106.329 14.86C106.385 14.958 106.469 15 106.581 15H109.045C109.157 15 109.241 14.958 109.297 14.86L113.917 6.726C113.959 6.642 113.987 6.558 113.987 6.46V14.79C113.987 14.93 114.057 15 114.197 15H116.577C116.717 15 116.787 14.93 116.787 14.79V1.21C116.787 1.07 116.717 1 116.577 1H114.197ZM121.553 3.562H136.253C136.393 3.562 136.463 3.492 136.463 3.352V1.21C136.463 1.07 136.393 1 136.253 1H118.963C118.823 1 118.753 1.07 118.753 1.21V14.79C118.753 14.93 118.823 15 118.963 15H136.253C136.393 15 136.463 14.93 136.463 14.79V12.648C136.463 12.508 136.393 12.438 136.253 12.438H121.553V9.26H136.253C136.393 9.26 136.463 9.19 136.463 9.05V6.908C136.463 6.768 136.393 6.698 136.253 6.698H121.553V3.562ZM155.788 15C155.928 15 155.998 14.93 155.998 14.79V1.21C155.998 1.07 155.928 1 155.788 1H153.408C153.268 1 153.198 1.07 153.198 1.21V11.36L140.99 1.098C140.92 1.028 140.822 1 140.724 1H138.288C138.148 1 138.078 1.07 138.078 1.21V14.79C138.078 14.93 138.148 15 138.288 15H140.668C140.808 15 140.878 14.93 140.878 14.79V4.43L153.086 14.902C153.156 14.972 153.254 15 153.352 15H155.788ZM175.954 6.6C175.954 5.06 175.408 3.744 174.302 2.652C173.21 1.546 171.894 1 170.354 1H158.174C158.034 1 157.964 1.07 157.964 1.21V14.79C157.964 14.93 158.034 15 158.174 15H170.354C171.894 15 173.21 14.454 174.302 13.362C175.408 12.256 175.954 10.94 175.954 9.4V6.6ZM173.154 9.4C173.154 10.184 172.874 10.884 172.328 11.514C171.782 12.13 171.124 12.438 170.354 12.438H160.764V3.562H170.354C171.124 3.562 171.782 3.87 172.328 4.5C172.874 5.116 173.154 5.816 173.154 6.6V9.4Z" fill="url(#paint0_diamond_3_1608)"/>
<defs>
<radialGradient id="paint0_diamond_3_1608" cx="0" cy="0" r="1" gradientUnits="userSpaceOnUse" gradientTransform="translate(32.9039 -9.41669) rotate(10.51) scale(155.787 273.626)">
<stop stop-color="#0038FF"/>
<stop offset="0.351797" stop-color="#FA00FF"/>
<stop offset="0.692703" stop-color="#00FFFF"/>
<stop offset="1" stop-color="#00FF47"/>
</radialGradient>
</defs>
</svg>
