<svg width="156" height="16" viewBox="0 0 156 16" fill="none" xmlns="http://www.w3.org/2000/svg">
<path d="M2.92 3.562H17.9C18.04 3.562 18.11 3.492 18.11 3.352V1.21C18.11 1.07 18.04 1 17.9 1H0.33C0.19 1 0.12 1.07 0.12 1.21V14.79C0.12 14.93 0.19 15 0.33 15H2.71C2.85 15 2.92 14.93 2.92 14.79V9.4H17.9C18.04 9.4 18.11 9.33 18.11 9.19V7.048C18.11 6.908 18.04 6.838 17.9 6.838H2.92V3.562ZM30.3095 1.14C30.2535 1.042 30.1695 1 30.0575 1H26.7535C26.6415 1 26.5575 1.042 26.5015 1.14L18.8155 14.748C18.7455 14.902 18.8015 15 18.9695 15H21.6575C21.7695 15 21.8535 14.958 21.9095 14.86L22.9875 12.942H33.8235L34.9015 14.86C34.9575 14.958 35.0415 15 35.1535 15H37.8415C38.0095 15 38.0655 14.902 37.9955 14.748L30.3095 1.14ZM24.4295 10.38L28.4055 3.31L32.3815 10.38H24.4295ZM54.7589 1C54.6469 1 54.5629 1.042 54.5069 1.14L48.0109 12.69L41.5149 1.14C41.4589 1.042 41.3749 1 41.2629 1H38.5749C38.4069 1 38.3509 1.098 38.4209 1.252L46.1069 14.86C46.1629 14.958 46.2469 15 46.3589 15H49.6629C49.7749 15 49.8589 14.958 49.9149 14.86L57.6009 1.252C57.6709 1.098 57.6149 1 57.4469 1H54.7589ZM77.0664 8C77.0664 7.804 77.0664 7.664 77.0524 7.566C76.9264 5.312 75.8064 3.534 74.0704 2.526C72.3484 1.504 70.2484 1 67.8264 0.958H67.4064C64.9844 1 62.8844 1.504 61.1484 2.526C59.4264 3.534 58.3064 5.312 58.1804 7.566C58.1664 7.664 58.1664 7.804 58.1664 8V8.014V8.028C58.1664 8.224 58.1664 8.364 58.1804 8.462C58.3064 10.716 59.4264 12.48 61.1484 13.502C62.8844 14.51 64.9844 15 67.4064 15.042H67.8264C70.2484 15 72.3484 14.51 74.0704 13.502C75.8064 12.48 76.9264 10.716 77.0524 8.462C77.0664 8.364 77.0664 8.224 77.0664 8.028V8.014V8ZM67.4204 12.41C65.9084 12.396 64.4384 12.046 63.1364 11.388C61.8484 10.716 60.9664 9.512 60.9664 8.014C60.9664 6.516 61.8484 5.298 63.1364 4.64C64.4384 3.968 65.9084 3.618 67.4204 3.604H67.8124C69.3244 3.618 70.7944 3.968 72.0824 4.64C73.3844 5.298 74.2664 6.516 74.2664 8.014C74.2664 9.512 73.3844 10.716 72.0824 11.388C70.7944 12.046 69.3244 12.396 67.8124 12.41H67.4204ZM96.5179 15C96.6999 15 96.7419 14.916 96.6719 14.748L94.2359 9.064C95.0059 8.742 95.6219 8.224 96.0839 7.538C96.5459 6.838 96.7839 6.054 96.7839 5.2C96.7839 4.038 96.3779 3.058 95.5519 2.232C94.7399 1.406 93.7459 1 92.5839 1H78.4719C78.3319 1 78.2619 1.07 78.2619 1.21V14.79C78.2619 14.93 78.3319 15 78.4719 15H80.8519C80.9919 15 81.0619 14.93 81.0619 14.79V9.4H91.3519L93.6619 14.832C93.7039 14.944 93.7879 15 93.9139 15H96.5179ZM92.5839 3.562C92.9759 3.562 93.3119 3.73 93.5779 4.08C93.8439 4.416 93.9839 4.794 93.9839 5.2C93.9839 5.606 93.8439 5.984 93.5779 6.334C93.3119 6.67 92.9759 6.838 92.5839 6.838H81.0619V3.562H92.5839ZM115.717 3.562C115.857 3.562 115.927 3.492 115.927 3.352V1.21C115.927 1.07 115.857 1 115.717 1H97.9373C97.7973 1 97.7273 1.07 97.7273 1.21V3.352C97.7273 3.492 97.7973 3.562 97.9373 3.562H105.427V12.438H97.9373C97.7973 12.438 97.7273 12.508 97.7273 12.648V14.79C97.7273 14.93 97.7973 15 97.9373 15H115.717C115.857 15 115.927 14.93 115.927 14.79V12.648C115.927 12.508 115.857 12.438 115.717 12.438H108.227V3.562H115.717ZM117.053 1C116.913 1 116.843 1.07 116.843 1.21V3.352C116.843 3.492 116.913 3.562 117.053 3.562H125.033V14.79C125.033 14.93 125.103 15 125.243 15H127.623C127.763 15 127.833 14.93 127.833 14.79V3.562H135.813C135.953 3.562 136.023 3.492 136.023 3.352V1.21C136.023 1.07 135.953 1 135.813 1H117.053ZM140.158 3.562H154.858C154.998 3.562 155.068 3.492 155.068 3.352V1.21C155.068 1.07 154.998 1 154.858 1H137.568C137.428 1 137.358 1.07 137.358 1.21V14.79C137.358 14.93 137.428 15 137.568 15H154.858C154.998 15 155.068 14.93 155.068 14.79V12.648C155.068 12.508 154.998 12.438 154.858 12.438H140.158V9.26H154.858C154.998 9.26 155.068 9.19 155.068 9.05V6.908C155.068 6.768 154.998 6.698 154.858 6.698H140.158V3.562Z" fill="url(#paint0_diamond_131_661)"/>
<defs>
<radialGradient id="paint0_diamond_131_661" cx="0" cy="0" r="1" gradientUnits="userSpaceOnUse" gradientTransform="translate(28.1859 -9.41669) rotate(11.8133) scale(138.805 272.401)">
<stop stop-color="#0038FF"/>
<stop offset="0.351797" stop-color="#FA00FF"/>
<stop offset="0.692703" stop-color="#00FFFF"/>
<stop offset="1" stop-color="#00FF47"/>
</radialGradient>
</defs>
</svg>
