<svg width="59" height="16" viewBox="0 0 59 16" fill="none" xmlns="http://www.w3.org/2000/svg">
<path d="M0.42 1C0.28 1 0.21 1.07 0.21 1.21V3.352C0.21 3.492 0.28 3.562 0.42 3.562H8.4V14.79C8.4 14.93 8.47 15 8.61 15H10.99C11.13 15 11.2 14.93 11.2 14.79V3.562H19.18C19.32 3.562 19.39 3.492 19.39 3.352V1.21C19.39 1.07 19.32 1 19.18 1H0.42ZM38.8555 8C38.8555 7.804 38.8555 7.664 38.8415 7.566C38.7155 5.312 37.5955 3.534 35.8595 2.526C34.1375 1.504 32.0375 1 29.6155 0.958H29.1955C26.7735 1 24.6735 1.504 22.9375 2.526C21.2155 3.534 20.0955 5.312 19.9695 7.566C19.9555 7.664 19.9555 7.804 19.9555 8V8.014V8.028C19.9555 8.224 19.9555 8.364 19.9695 8.462C20.0955 10.716 21.2155 12.48 22.9375 13.502C24.6735 14.51 26.7735 15 29.1955 15.042H29.6155C32.0375 15 34.1375 14.51 35.8595 13.502C37.5955 12.48 38.7155 10.716 38.8415 8.462C38.8555 8.364 38.8555 8.224 38.8555 8.028V8.014V8ZM29.2095 12.41C27.6975 12.396 26.2275 12.046 24.9255 11.388C23.6375 10.716 22.7555 9.512 22.7555 8.014C22.7555 6.516 23.6375 5.298 24.9255 4.64C26.2275 3.968 27.6975 3.618 29.2095 3.604H29.6015C31.1135 3.618 32.5835 3.968 33.8715 4.64C35.1735 5.298 36.0555 6.516 36.0555 8.014C36.0555 9.512 35.1735 10.716 33.8715 11.388C32.5835 12.046 31.1135 12.396 29.6015 12.41H29.2095ZM54.1909 9.4C55.3529 9.4 56.3329 8.994 57.1589 8.168C57.9849 7.342 58.3909 6.362 58.3909 5.2C58.3909 4.038 57.9849 3.058 57.1589 2.232C56.3329 1.406 55.3529 1 54.1909 1H40.2609C40.1209 1 40.0509 1.07 40.0509 1.21V14.79C40.0509 14.93 40.1209 15 40.2609 15H42.6409C42.7809 15 42.8509 14.93 42.8509 14.79V9.4H54.1909ZM54.1909 3.562C54.5689 3.562 54.9049 3.73 55.1709 4.08C55.4509 4.416 55.5909 4.794 55.5909 5.2C55.5909 5.606 55.4509 5.984 55.1709 6.334C54.9049 6.67 54.5689 6.838 54.1909 6.838H42.8509V3.562H54.1909Z" fill="url(#paint0_diamond_93_23497)"/>
<defs>
<radialGradient id="paint0_diamond_93_23497" cx="0" cy="0" r="1" gradientUnits="userSpaceOnUse" gradientTransform="translate(10.968 -9.41669) rotate(29.0986) scale(58.4328 243.17)">
<stop stop-color="#0038FF"/>
<stop offset="0.351797" stop-color="#FA00FF"/>
<stop offset="0.692703" stop-color="#00FFFF"/>
<stop offset="1" stop-color="#00FF47"/>
</radialGradient>
</defs>
</svg>
