<svg width="59" height="14" viewBox="0 0 59 14" fill="none" xmlns="http://www.w3.org/2000/svg">
<path d="M11.704 0.139999C11.648 0.0419995 11.564 0 11.452 0H8.148C8.036 0 7.952 0.0419995 7.896 0.139999L0.21 13.748C0.14 13.902 0.196 14 0.364 14H3.052C3.164 14 3.248 13.958 3.304 13.86L4.382 11.942H15.218L16.296 13.86C16.352 13.958 16.436 14 16.548 14H19.236C19.404 14 19.46 13.902 19.39 13.748L11.704 0.139999ZM5.824 9.38L9.8 2.31L13.776 9.38H5.824ZM38.8555 14C38.9955 14 39.0655 13.93 39.0655 13.79V11.634C39.0655 11.494 38.9955 11.424 38.8555 11.424H23.5255V0.209999C23.5255 0.0699991 23.4555 0 23.3155 0H20.9355C20.7955 0 20.7255 0.0699991 20.7255 0.209999V13.79C20.7255 13.93 20.7955 14 20.9355 14H38.8555ZM58.4609 14C58.6009 14 58.6709 13.93 58.6709 13.79V11.634C58.6709 11.494 58.6009 11.424 58.4609 11.424H43.1309V0.209999C43.1309 0.0699991 43.0609 0 42.9209 0H40.5409C40.4009 0 40.3309 0.0699991 40.3309 0.209999V13.79C40.3309 13.93 40.4009 14 40.5409 14H58.4609Z" fill="url(#paint0_diamond_3_4948)"/>
<defs>
<radialGradient id="paint0_diamond_3_4948" cx="0" cy="0" r="1" gradientUnits="userSpaceOnUse" gradientTransform="translate(10.968 -10.4167) rotate(29.0986) scale(58.4328 243.17)">
<stop stop-color="#0038FF"/>
<stop offset="0.351797" stop-color="#FA00FF"/>
<stop offset="0.692703" stop-color="#00FFFF"/>
<stop offset="1" stop-color="#00FF47"/>
</radialGradient>
</defs>
</svg>
