<svg width="27" height="27" viewBox="0 0 27 27" fill="none" xmlns="http://www.w3.org/2000/svg">
<rect width="27" height="27" rx="13.5" fill="#0038FF"/>
<path d="M18.5384 12.5401L18.5383 12.54C18.2372 11.8305 17.8041 11.1976 17.2519 10.6654L17.2515 10.6651L16.8794 10.307L16.8725 10.3003L16.8655 10.2938C16.5267 9.97996 16.0815 9.93026 15.7122 10.0777C15.6108 9.81987 15.4937 9.56121 15.3622 9.30235C14.8689 8.32791 14.1686 7.54225 13.2772 6.99041L13.2761 6.98975L12.7506 6.66533C12.7501 6.66499 12.7495 6.66464 12.749 6.6643C11.9056 6.14199 11.0364 6.87933 11.0704 7.65634L11.0704 7.65761L11.0985 8.29991C11.0985 8.29997 11.0985 8.30003 11.0985 8.3001C11.1136 8.6467 11.0724 8.90098 11.011 9.07329L11.0109 9.07361C10.9064 9.36759 10.7568 9.63971 10.5656 9.88432C10.4281 10.0589 10.2776 10.212 10.1172 10.3416C9.46008 10.8707 8.9234 11.5554 8.55973 12.32L8.55938 12.3208C8.19187 13.0952 8 13.9567 8 14.8191C8 15.5794 8.14319 16.3204 8.42786 17.0201L8.42847 17.0216C8.70292 17.693 9.09649 18.302 9.5987 18.8239L9.59973 18.825C10.101 19.3445 10.6884 19.759 11.3472 20.0479C12.0293 20.3479 12.7545 20.5 13.5 20.5C14.2455 20.5 14.97 20.348 15.651 20.05L15.6515 20.0498C16.3084 19.7619 16.8986 19.3492 17.4014 18.8253C17.905 18.303 18.2989 17.6935 18.5723 17.0211C18.857 16.3215 19 15.5804 19 14.8205C19 14.0335 18.8459 13.2648 18.5384 12.5401ZM11.6976 8.36564L11.6989 8.36643L11.6951 8.36413L11.6976 8.36564Z" stroke="white" stroke-width="2"/>
</svg>
