<svg width="27" height="27" viewBox="0 0 27 27" fill="none" xmlns="http://www.w3.org/2000/svg">
<rect width="27" height="27" rx="13.5" fill="white"/>
<path fill-rule="evenodd" clip-rule="evenodd" d="M19.5767 9.66041C19.6806 9.93683 19.7846 10.2132 19.8891 10.4895C19.9078 10.5387 19.8832 10.5926 19.8352 10.6102L16.7526 11.7753L9.64554 14.3937C9.59256 14.3555 9.54351 14.3126 9.50039 14.2629L9.48281 14.243C9.37969 13.9723 9.12187 13.8047 8.84765 13.8047H8.84531C8.69414 13.8059 8.5582 13.7156 8.5043 13.5738L8.01211 12.2707C7.97578 12.1746 8.02383 12.0656 8.12109 12.0293L18.7523 8.01211C18.8484 7.97578 18.9574 8.02383 18.9938 8.12109C19.1904 8.63329 19.3835 9.14685 19.5767 9.66041ZM9.79219 14.8397V19.1074C9.79219 19.159 9.83437 19.2012 9.88594 19.2012H12.9797C13.1871 19.2012 13.3547 19.0336 13.3547 18.8262V15.941C13.3547 15.7371 13.418 15.5438 13.5281 15.3832C13.6395 15.2227 13.7977 15.0949 13.9887 15.0234L16.0148 14.2594C16.6383 14.0238 16.9535 13.3277 16.718 12.7031L16.5804 12.3388L15.8759 12.5984L15.9891 12.8988C16.0922 13.1719 15.9516 13.4766 15.6773 13.5762L14.3602 14.052C13.9279 14.2074 13.4746 13.9421 13.3757 13.5195L9.79219 14.8397ZM13.758 13.3786C14.0231 13.6177 14.3754 13.7637 14.7609 13.7637H14.7633C14.8523 13.7637 14.8934 13.6523 14.8266 13.5926C14.6752 13.458 14.543 13.3019 14.4345 13.1294L13.758 13.3786Z" fill="#0075FF"/>
</svg>
