<svg width="27" height="27" viewBox="0 0 27 27" fill="none" xmlns="http://www.w3.org/2000/svg">
<rect width="27" height="27" rx="13.5" fill="black"/>
<path fill-rule="evenodd" clip-rule="evenodd" d="M11.5588 9C11.5377 9.00004 11.5166 9.00017 11.4954 9.00039L11.221 9.00895L11.1361 9.0175C10.9855 9.04004 10.8437 9.10232 10.7252 9.19793C10.6067 9.29353 10.5158 9.419 10.462 9.5614L10.4357 9.64268L9.00201 14.9949L8.0126 18.6146C7.98877 18.703 7.99898 18.7971 8.04121 18.8783C8.08343 18.9595 8.1546 19.0219 8.24064 19.0532C8.32667 19.0845 8.4213 19.0823 8.50582 19.0471C8.59034 19.012 8.65858 18.9464 8.69706 18.8633L8.71722 18.8077L9.78791 14.8977L9.82494 14.8952L11.5588 9ZM10.8275 14.8865L12.5389 9.06759C12.8107 9.10632 13.078 9.16172 13.341 9.23384C13.9802 9.40862 14.4422 9.67263 15.0845 10.1658L15.6162 10.5728C16.0819 10.9157 16.4333 11.1045 16.8739 11.2206L17.086 11.2719L17.298 11.3129C17.8625 11.4086 18.4399 11.3968 19 11.2781L17.4783 16.9578L17.4306 16.989C17.0016 17.2487 16.3673 17.2848 15.5239 17.0892C14.8254 16.9273 14.3603 16.6572 13.7046 16.1169L13.289 15.7747C12.794 15.3793 12.4365 15.177 11.9507 15.056C11.5908 14.9666 11.2164 14.9102 10.8275 14.8865Z" fill="white"/>
</svg>
