<svg width="27" height="27" viewBox="0 0 27 27" fill="none" xmlns="http://www.w3.org/2000/svg">
<rect width="27" height="27" rx="13.5" fill="black"/>
<path d="M13.4932 9C10.6524 9 7.91988 10.8703 7 13.5C7.91988 16.1297 10.6524 18 13.4932 18C16.3205 18 19.0801 16.1297 20 13.5C19.0666 10.8703 16.3205 9 13.4932 9ZM13.4932 16.3125C12.0052 16.3125 10.7877 15.0469 10.7877 13.5C10.7877 11.9531 12.0052 10.6875 13.4932 10.6875C14.9813 10.6875 16.1988 11.9531 16.1988 13.5C16.1988 15.0469 14.9813 16.3125 13.4932 16.3125ZM15.1165 13.5C15.1165 14.4281 14.3861 15.1875 13.4932 15.1875C12.6004 15.1875 11.8699 14.4281 11.8699 13.5C11.8699 12.5719 12.6004 11.8125 13.4932 11.8125C14.3861 11.8125 15.1165 12.5719 15.1165 13.5Z" fill="white"/>
</svg>
