<svg width="27" height="27" viewBox="0 0 27 27" fill="none" xmlns="http://www.w3.org/2000/svg">
<rect width="27" height="27" rx="13.5" fill="white"/>
<path fill-rule="evenodd" clip-rule="evenodd" d="M17.5 10.5C17.5 12.3638 16.2252 13.9299 14.5 14.374V16.5C14.5 17.0523 14.0523 17.5 13.5 17.5C12.9477 17.5 12.5 17.0523 12.5 16.5V14.374C10.7748 13.9299 9.5 12.3638 9.5 10.5C9.5 8.29086 11.2909 6.5 13.5 6.5C15.7091 6.5 17.5 8.29086 17.5 10.5ZM10 17.9999C10 17.487 10.6008 17.0342 11.5172 16.7637C11.6463 17.7436 12.4848 18.4999 13.5 18.4999C14.5152 18.4999 15.3537 17.7436 15.4828 16.7637C16.3992 17.0342 17 17.487 17 17.9999C17 18.8284 15.433 19.4999 13.5 19.4999C11.567 19.4999 10 18.8284 10 17.9999Z" fill="#F2271C"/>
</svg>
