<svg width="27" height="27" viewBox="0 0 27 27" fill="none" xmlns="http://www.w3.org/2000/svg">
<g clip-path="url(#clip0_99_20790)">
<rect width="27" height="27" rx="13.5" fill="white"/>
<path d="M19.4769 12.3808C19.23 10.226 17.6668 8.98969 17.6668 8.98969C16.1705 7.56487 13.3456 6.87926 10.8458 8.22553C8.18201 9.66051 7.12386 12.6441 7.6176 14.8211C8.1104 16.9971 10.0609 19.0641 12.8858 19.4818C13.7376 19.5917 15.0379 19.2175 14.3877 18.0089C13.7376 16.7994 14.2304 15.9862 16.0913 16.184C17.9523 16.3817 19.7238 14.5356 19.4769 12.3808ZM9.88185 13.6393C9.32498 13.6393 8.87269 13.1967 8.87269 12.6497C8.87269 12.1036 9.32403 11.6601 9.88185 11.6601C10.4387 11.6601 10.891 12.1027 10.891 12.6497C10.891 13.1967 10.4387 13.6393 9.88185 13.6393ZM11.8992 11.1648C11.3424 11.1648 10.8901 10.7222 10.8901 10.1752C10.8901 9.6291 11.3414 9.18557 11.8992 9.18557C12.4561 9.18557 12.9084 9.62817 12.9084 10.1752C12.9084 10.7222 12.4571 11.1648 11.8992 11.1648ZM15.0907 10.9855C14.5338 10.9855 14.0815 10.5429 14.0815 9.99593C14.0815 9.44984 14.5329 9.00632 15.0907 9.00632C15.6475 9.00632 16.0998 9.44892 16.0998 9.99593C16.0989 10.542 15.6475 10.9855 15.0907 10.9855ZM17.108 13.5284C16.5512 13.5284 16.0989 13.0858 16.0989 12.5388C16.0989 11.9927 16.5502 11.5492 17.108 11.5492C17.6649 11.5492 18.1172 11.9918 18.1172 12.5388C18.1172 13.0849 17.6649 13.5284 17.108 13.5284Z" fill="#FF8C00"/>
</g>
<defs>
<clipPath id="clip0_99_20790">
<rect width="27" height="27" rx="13.5" fill="white"/>
</clipPath>
</defs>
</svg>
