<svg width="27" height="27" viewBox="0 0 27 27" fill="none" xmlns="http://www.w3.org/2000/svg">
<rect width="27" height="27" rx="13.5" fill="white"/>
<path d="M21.4273 5.45117L14.5566 10.5541L15.8272 7.54345L21.4273 5.45117Z" fill="#E2761B" stroke="#E2761B" stroke-width="0.0690521" stroke-linecap="round" stroke-linejoin="round"/>
<path d="M5.56641 5.45117L12.3818 10.6025L11.1734 7.54345L5.56641 5.45117Z" fill="#E4761B" stroke="#E4761B" stroke-width="0.0690521" stroke-linecap="round" stroke-linejoin="round"/>
<path d="M18.9568 17.2803L17.127 20.0838L21.0422 21.161L22.1678 17.3424L18.9568 17.2803Z" fill="#E4761B" stroke="#E4761B" stroke-width="0.0690521" stroke-linecap="round" stroke-linejoin="round"/>
<path d="M4.8418 17.3424L5.96044 21.161L9.8757 20.0838L8.04582 17.2803L4.8418 17.3424Z" fill="#E4761B" stroke="#E4761B" stroke-width="0.0690521" stroke-linecap="round" stroke-linejoin="round"/>
<path d="M9.65548 12.5432L8.56445 14.1935L12.4521 14.3661L12.314 10.1885L9.65548 12.5432Z" fill="#E4761B" stroke="#E4761B" stroke-width="0.0690521" stroke-linecap="round" stroke-linejoin="round"/>
<path d="M17.3394 12.5427L14.6464 10.1396L14.5566 14.3656L18.4374 14.193L17.3394 12.5427Z" fill="#E4761B" stroke="#E4761B" stroke-width="0.0690521" stroke-linecap="round" stroke-linejoin="round"/>
<path d="M9.875 20.0829L12.209 18.9435L10.1926 17.3691L9.875 20.0829Z" fill="#E4761B" stroke="#E4761B" stroke-width="0.0690521" stroke-linecap="round" stroke-linejoin="round"/>
<path d="M14.7852 18.9435L17.126 20.0829L16.8015 17.3691L14.7852 18.9435Z" fill="#E4761B" stroke="#E4761B" stroke-width="0.0690521" stroke-linecap="round" stroke-linejoin="round"/>
<path d="M17.126 20.0837L14.7852 18.9443L14.9716 20.4704L14.9509 21.1126L17.126 20.0837Z" fill="#D7C1B3" stroke="#D7C1B3" stroke-width="0.0690521" stroke-linecap="round" stroke-linejoin="round"/>
<path d="M9.875 20.0837L12.0501 21.1126L12.0363 20.4704L12.209 18.9443L9.875 20.0837Z" fill="#D7C1B3" stroke="#D7C1B3" stroke-width="0.0690521" stroke-linecap="round" stroke-linejoin="round"/>
<path d="M12.084 16.3617L10.1367 15.7885L11.5109 15.1602L12.084 16.3617Z" fill="#233447" stroke="#233447" stroke-width="0.0690521" stroke-linecap="round" stroke-linejoin="round"/>
<path d="M14.9082 16.3617L15.4813 15.1602L16.8624 15.7885L14.9082 16.3617Z" fill="#233447" stroke="#233447" stroke-width="0.0690521" stroke-linecap="round" stroke-linejoin="round"/>
<path d="M9.8748 20.0838L10.2063 17.2803L8.04492 17.3424L9.8748 20.0838Z" fill="#CD6116" stroke="#CD6116" stroke-width="0.0690521" stroke-linecap="round" stroke-linejoin="round"/>
<path d="M16.793 17.2803L17.1244 20.0838L18.9543 17.3424L16.793 17.2803Z" fill="#CD6116" stroke="#CD6116" stroke-width="0.0690521" stroke-linecap="round" stroke-linejoin="round"/>
<path d="M18.4374 14.1934L14.5566 14.366L14.9157 16.3616L15.4888 15.1601L16.8699 15.7885L18.4374 14.1934Z" fill="#CD6116" stroke="#CD6116" stroke-width="0.0690521" stroke-linecap="round" stroke-linejoin="round"/>
<path d="M10.1369 15.7885L11.5179 15.1601L12.0842 16.3616L12.4501 14.366L8.5625 14.1934L10.1369 15.7885Z" fill="#CD6116" stroke="#CD6116" stroke-width="0.0690521" stroke-linecap="round" stroke-linejoin="round"/>
<path d="M8.5625 14.1934L10.1921 17.3698L10.1369 15.7885L8.5625 14.1934Z" fill="#E4751F" stroke="#E4751F" stroke-width="0.0690521" stroke-linecap="round" stroke-linejoin="round"/>
<path d="M16.8698 15.7885L16.8008 17.3698L18.4373 14.1934L16.8698 15.7885Z" fill="#E4751F" stroke="#E4751F" stroke-width="0.0690521" stroke-linecap="round" stroke-linejoin="round"/>
<path d="M12.45 14.3662L12.084 16.3618L12.5397 18.7165L12.6433 15.6161L12.45 14.3662Z" fill="#E4751F" stroke="#E4751F" stroke-width="0.0690521" stroke-linecap="round" stroke-linejoin="round"/>
<path d="M14.5556 14.3662L14.3691 15.6091L14.452 18.7165L14.9147 16.3618L14.5556 14.3662Z" fill="#E4751F" stroke="#E4751F" stroke-width="0.0690521" stroke-linecap="round" stroke-linejoin="round"/>
<path d="M14.9158 16.3612L14.4531 18.7159L14.7846 18.9438L16.8009 17.3694L16.8699 15.7881L14.9158 16.3612Z" fill="#F6851B" stroke="#F6851B" stroke-width="0.0690521" stroke-linecap="round" stroke-linejoin="round"/>
<path d="M10.1367 15.7881L10.192 17.3694L12.2083 18.9438L12.5397 18.7159L12.084 16.3612L10.1367 15.7881Z" fill="#F6851B" stroke="#F6851B" stroke-width="0.0690521" stroke-linecap="round" stroke-linejoin="round"/>
<path d="M14.9503 21.1119L14.971 20.4697L14.7984 20.3178H12.1951L12.0363 20.4697L12.0501 21.1119L9.875 20.083L10.6346 20.7045L12.1744 21.7748H14.8191L16.3659 20.7045L17.1255 20.083L14.9503 21.1119Z" fill="#C0AD9E" stroke="#C0AD9E" stroke-width="0.0690521" stroke-linecap="round" stroke-linejoin="round"/>
<path d="M14.7834 18.9447L14.452 18.7168H12.5392L12.2078 18.9447L12.0352 20.4707L12.194 20.3188H14.7972L14.9699 20.4707L14.7834 18.9447Z" fill="#161616" stroke="#161616" stroke-width="0.0690521" stroke-linecap="round" stroke-linejoin="round"/>
<path d="M21.716 10.8856L22.303 8.06825L21.426 5.45117L14.7832 10.3815L17.3381 12.5428L20.9496 13.5993L21.7506 12.6671L21.4053 12.4185L21.9577 11.9144L21.5296 11.583L22.082 11.1618L21.716 10.8856Z" fill="#763D16" stroke="#763D16" stroke-width="0.0690521" stroke-linecap="round" stroke-linejoin="round"/>
<path d="M4.69531 8.06825L5.28226 10.8856L4.90937 11.1618L5.46179 11.583L5.04057 11.9144L5.59299 12.4185L5.24773 12.6671L6.04183 13.5993L9.65325 12.5428L12.2082 10.3815L5.56537 5.45117L4.69531 8.06825Z" fill="#763D16" stroke="#763D16" stroke-width="0.0690521" stroke-linecap="round" stroke-linejoin="round"/>
<path d="M20.9508 13.5995L17.3394 12.543L18.4373 14.1933L16.8008 17.3697L18.9552 17.3421H22.1661L20.9508 13.5995Z" fill="#F6851B" stroke="#F6851B" stroke-width="0.0690521" stroke-linecap="round" stroke-linejoin="round"/>
<path d="M9.65278 12.543L6.04135 13.5995L4.83984 17.3421H8.04386L10.1914 17.3697L8.56175 14.1933L9.65278 12.543Z" fill="#F6851B" stroke="#F6851B" stroke-width="0.0690521" stroke-linecap="round" stroke-linejoin="round"/>
<path d="M14.5574 14.3663L14.7853 10.382L15.8348 7.54395H11.1738L12.2096 10.382L12.4513 14.3663L12.5342 15.623L12.5411 18.7166H14.4538L14.4676 15.623L14.5574 14.3663Z" fill="#F6851B" stroke="#F6851B" stroke-width="0.0690521" stroke-linecap="round" stroke-linejoin="round"/>
</svg>
