<svg width="27" height="27" viewBox="0 0 27 27" fill="none" xmlns="http://www.w3.org/2000/svg">
<rect width="27" height="27" rx="13.5" fill="black"/>
<path d="M7.88969 10.0253C10.9882 6.99158 16.0118 6.99158 19.1103 10.0253L19.4832 10.3904C19.6382 10.5421 19.6382 10.788 19.4832 10.9397L18.2076 12.1886C18.1301 12.2645 18.0045 12.2645 17.9271 12.1886L17.4139 11.6862C15.2523 9.56983 11.7477 9.56983 9.58611 11.6862L9.03655 12.2243C8.95909 12.3001 8.8335 12.3001 8.75604 12.2243L7.48039 10.9753C7.32547 10.8236 7.32547 10.5777 7.48039 10.426L7.88969 10.0253ZM21.7485 12.6082L22.8838 13.7198C23.0387 13.8715 23.0387 14.1174 22.8838 14.2691L17.7645 19.2814C17.6096 19.4331 17.3584 19.4331 17.2035 19.2814C17.2035 19.2814 17.2035 19.2814 17.2035 19.2814L13.5702 15.724C13.5314 15.6861 13.4686 15.6861 13.4299 15.724L13.4299 15.724L9.79664 19.2814C9.64171 19.4331 9.39053 19.4331 9.23561 19.2814C9.23561 19.2814 9.2356 19.2814 9.2356 19.2814L4.11619 14.2691C3.96127 14.1174 3.96127 13.8715 4.11619 13.7198L5.25152 12.6082C5.40645 12.4565 5.65763 12.4565 5.81255 12.6082L9.44595 16.1656C9.48468 16.2035 9.54748 16.2035 9.58621 16.1656C9.58621 16.1656 9.58621 16.1656 9.58621 16.1656L13.2194 12.6082C13.3743 12.4565 13.6255 12.4565 13.7805 12.6082C13.7805 12.6082 13.7805 12.6082 13.7805 12.6082L17.4139 16.1656C17.4526 16.2035 17.5154 16.2035 17.5541 16.1656L21.1874 12.6082C21.3424 12.4566 21.5936 12.4566 21.7485 12.6082Z" fill="#3B99FC"/>
</svg>
