<svg width="27" height="27" viewBox="0 0 27 27" fill="none" xmlns="http://www.w3.org/2000/svg">
<rect width="27" height="27" rx="13.5" fill="black"/>
<path fill-rule="evenodd" clip-rule="evenodd" d="M19.5 8.5C19.5 7.94772 19.0523 7.5 18.5 7.5H11.5C10.9477 7.5 10.5 7.94772 10.5 8.5V9.5H16.5C17.0523 9.5 17.5 9.94772 17.5 10.5V15.1667L18.7227 15.9818C19.0549 16.2033 19.5 15.9651 19.5 15.5657V8.5ZM8.5 10.5C7.94772 10.5 7.5 10.9477 7.5 11.5V18.5657C7.5 18.9651 7.94507 19.2033 8.27735 18.9818L10.2481 17.6679C10.4123 17.5584 10.6054 17.5 10.8028 17.5H15.5C16.0523 17.5 16.5 17.0523 16.5 16.5V11.5C16.5 10.9477 16.0523 10.5 15.5 10.5H8.5Z" fill="white"/>
</svg>
