<svg width="27" height="27" viewBox="0 0 27 27" fill="none" xmlns="http://www.w3.org/2000/svg">
<rect width="27" height="27" rx="13.5" fill="white"/>
<path fill-rule="evenodd" clip-rule="evenodd" d="M13.5 10.75C14.7426 10.75 15.75 9.74264 15.75 8.5C15.75 7.25736 14.7426 6.25 13.5 6.25C12.2574 6.25 11.25 7.25736 11.25 8.5C11.25 9.74264 12.2574 10.75 13.5 10.75ZM8.25 19.75C9.49264 19.75 10.5 18.7426 10.5 17.5C10.5 16.2574 9.49264 15.25 8.25 15.25C7.00736 15.25 6 16.2574 6 17.5C6 18.7426 7.00736 19.75 8.25 19.75ZM21 17.5C21 18.7426 19.9926 19.75 18.75 19.75C17.5074 19.75 16.5 18.7426 16.5 17.5C16.5 16.2574 17.5074 15.25 18.75 15.25C19.9926 15.25 21 16.2574 21 17.5ZM13.5001 11.7502C14.5528 11.7502 15.4886 11.2497 16.0826 10.4736L18.2807 14.2838C16.7082 14.5113 15.5001 15.8646 15.5001 17.5002C15.5001 18.0413 15.6324 18.5516 15.8663 19.0004H11.1339C11.3679 18.5516 11.5001 18.0413 11.5001 17.5002C11.5001 15.8657 10.2936 14.5131 8.72266 14.2843L10.9196 10.4762C11.5137 11.2507 12.4486 11.7502 13.5001 11.7502ZM11.3834 14.9047C10.9988 15.5713 11.4799 16.4044 12.2496 16.4044H14.7541C15.5238 16.4044 16.0049 15.5713 15.6203 14.9047L14.368 12.7341C13.9832 12.067 13.0205 12.067 12.6356 12.7341L11.3834 14.9047Z" fill="#00FF47"/>
</svg>
