<svg width="27" height="27" viewBox="0 0 27 27" fill="none" xmlns="http://www.w3.org/2000/svg">
<rect width="27" height="27" rx="13.5" fill="black"/>
<path fill-rule="evenodd" clip-rule="evenodd" d="M13.5 10.75C14.7426 10.75 15.75 9.74264 15.75 8.5C15.75 7.25736 14.7426 6.25 13.5 6.25C12.2574 6.25 11.25 7.25736 11.25 8.5C11.25 9.74264 12.2574 10.75 13.5 10.75ZM8.25 19.75C9.49264 19.75 10.5 18.7426 10.5 17.5C10.5 16.2574 9.49264 15.25 8.25 15.25C7.00736 15.25 6 16.2574 6 17.5C6 18.7426 7.00736 19.75 8.25 19.75ZM21 17.5C21 18.7426 19.9926 19.75 18.75 19.75C17.5074 19.75 16.5 18.7426 16.5 17.5C16.5 16.2574 17.5074 15.25 18.75 15.25C19.9926 15.25 21 16.2574 21 17.5ZM13.5 11.75C14.5521 11.75 15.4874 11.2501 16.0814 10.4749L18.2789 14.2839C16.7072 14.5121 15.5 15.8651 15.5 17.5C15.5 18.0413 15.6323 18.5516 15.8664 19.0005H11.1336C11.3677 18.5516 11.5 18.0413 11.5 17.5C11.5 15.8651 10.2928 14.5121 8.72111 14.2839L10.9186 10.4749C11.5126 11.2501 12.4479 11.75 13.5 11.75ZM11.3815 14.9048C10.9969 15.5715 11.4781 16.4045 12.2477 16.4045H14.7523C15.5219 16.4045 16.0031 15.5715 15.6185 14.9048L14.3662 12.7342C13.9814 12.0672 13.0186 12.0672 12.6338 12.7342L11.3815 14.9048Z" fill="white"/>
</svg>
