<svg width="27" height="27" viewBox="0 0 27 27" fill="none" xmlns="http://www.w3.org/2000/svg">
<rect width="27" height="27" rx="13.5" fill="black"/>
<path d="M12.9592 6.84763L6.95924 10.7048C6.67302 10.8888 6.5 11.2057 6.5 11.546V18.5C6.5 19.0523 6.94772 19.5 7.5 19.5H14C14.5523 19.5 15 19.0523 15 18.5V17C15 16.4477 15.4477 16 16 16C16.5523 16 17 16.4477 17 17V18.5C17 19.0523 17.4477 19.5 18 19.5H19.5C20.0523 19.5 20.5 19.0523 20.5 18.5V11.546C20.5 11.2057 20.327 10.8888 20.0408 10.7048L14.0408 6.84763C13.7113 6.63587 13.2887 6.63587 12.9592 6.84763Z" fill="white"/>
</svg>
