<svg width="27" height="27" viewBox="0 0 27 27" fill="none" xmlns="http://www.w3.org/2000/svg">
<rect width="27" height="27" rx="13.5" fill="black"/>
<path fill-rule="evenodd" clip-rule="evenodd" d="M14.7071 5.04283C14.8956 5.10312 15.0602 5.22301 15.1771 5.38505C15.294 5.54709 15.357 5.74284 15.357 5.94383V10.6661H19.0711C19.2409 10.666 19.4075 10.7133 19.5528 10.8028C19.698 10.8924 19.8163 11.0207 19.8948 11.1739C19.9734 11.3271 20.0091 11.4993 19.9981 11.6717C19.9871 11.8441 19.9298 12.0101 19.8325 12.1517L13.3329 21.5961C13.2197 21.761 13.0579 21.8848 12.8708 21.9496C12.6837 22.0144 12.4812 22.0168 12.2927 21.9564C12.1041 21.896 11.9395 21.7761 11.8226 21.6139C11.7058 21.4518 11.6428 21.256 11.643 21.055V16.3327H7.92893C7.75908 16.3328 7.59247 16.2855 7.44723 16.1959C7.30198 16.1064 7.18367 15.978 7.10516 15.8249C7.02665 15.6717 6.99095 15.4995 7.00195 15.3271C7.01295 15.1547 7.07023 14.9887 7.16755 14.8471L13.6671 5.40266C13.7804 5.23812 13.9423 5.11462 14.1293 5.05008C14.3164 4.98554 14.5187 4.98333 14.7071 5.04377V5.04283Z" fill="white"/>
</svg>
