<svg width="27" height="27" viewBox="0 0 27 27" fill="none" xmlns="http://www.w3.org/2000/svg">
<rect width="27" height="27" rx="13.5" fill="white"/>
<path d="M14.4286 20.0629C14.4287 20.2227 14.4692 20.3798 14.5463 20.5193C14.6234 20.6588 14.7345 20.7761 14.8691 20.86C15.0037 20.944 15.1573 20.9919 15.3154 20.9991C15.4734 21.0062 15.6307 20.9725 15.7722 20.9011L19.4865 19.026C19.6407 18.9482 19.7704 18.8286 19.8611 18.6805C19.9518 18.5325 19.9999 18.3619 20 18.1878V12.7837C19.9999 12.624 19.9594 12.4669 19.8823 12.3274C19.8052 12.1879 19.6941 12.0706 19.5595 11.9866C19.4249 11.9026 19.2713 11.8548 19.1132 11.8476C18.9551 11.8404 18.7979 11.8741 18.6564 11.9455L14.9421 13.8206C14.7879 13.8985 14.6581 14.0181 14.5674 14.1661C14.4767 14.3142 14.4287 14.4848 14.4286 14.6588V20.0629ZM18.3388 10C18.4928 9.92205 18.6223 9.80237 18.7128 9.65434C18.8034 9.50632 18.8513 9.33578 18.8513 9.16182C18.8513 8.98785 18.8034 8.81732 18.7128 8.66929C18.6223 8.52127 18.4928 8.40159 18.3388 8.32364L13.9151 6.09888C13.7862 6.03385 13.6441 6 13.5 6C13.3559 6 13.2138 6.02534 13.0849 6.09036L8.66121 8.32364C8.50718 8.40159 8.37767 8.52127 8.28715 8.66929C8.19664 8.81732 8.1487 8.98785 8.1487 9.16182C8.1487 9.33578 8.19664 9.50632 8.28715 9.65434C8.37767 9.80237 8.50718 9.92205 8.66121 10L13.0849 12.2333C13.2138 12.2983 13.3559 12.3322 13.5 12.3322C13.6441 12.3322 13.7862 12.2983 13.9151 12.2333L18.3388 10ZM8.34364 11.9455C8.20211 11.8741 8.04485 11.8404 7.88679 11.8476C7.72873 11.8548 7.57511 11.9026 7.44051 11.9866C7.30591 12.0706 7.19479 12.1879 7.11769 12.3274C7.0406 12.4669 7.00008 12.624 7 12.7837V18.1878C7.00009 18.3619 7.04818 18.5325 7.13887 18.6805C7.22956 18.8286 7.35928 18.9482 7.5135 19.026L11.2278 20.9011C11.3693 20.9725 11.5266 21.0062 11.6846 20.9991C11.8427 20.9919 11.9963 20.944 12.1309 20.86C12.2655 20.7761 12.3766 20.6588 12.4537 20.5193C12.5308 20.3798 12.5713 20.2227 12.5714 20.0629V14.6588C12.5713 14.4848 12.5233 14.3142 12.4326 14.1661C12.3419 14.0181 12.2121 13.8985 12.0579 13.8206L8.34364 11.9455Z" fill="#FF8C00"/>
</svg>
