<svg width="27" height="27" viewBox="0 0 27 27" fill="none" xmlns="http://www.w3.org/2000/svg">
<rect width="27" height="27" rx="13.5" fill="white"/>
<path fill-rule="evenodd" clip-rule="evenodd" d="M13.965 6.1229C13.8234 6.04236 13.6631 6 13.5 6C13.3369 6 13.1766 6.04236 13.035 6.1229L6.4725 9.85632C6.29313 9.95848 6.15269 10.1168 6.07301 10.3066C5.99334 10.4964 5.97889 10.7071 6.03193 10.906C6.08496 11.1048 6.2025 11.2807 6.36626 11.4061C6.53003 11.5316 6.73085 11.5997 6.9375 11.5998V18.1333C6.68886 18.1333 6.4504 18.2316 6.27459 18.4067C6.09877 18.5817 6 18.8191 6 19.0666C6 19.3142 6.09877 19.5516 6.27459 19.7266C6.4504 19.9017 6.68886 20 6.9375 20H20.0625C20.3111 20 20.5496 19.9017 20.7254 19.7266C20.9012 19.5516 21 19.3142 21 19.0666C21 18.8191 20.9012 18.5817 20.7254 18.4067C20.5496 18.2316 20.3111 18.1333 20.0625 18.1333V11.5998C20.2691 11.5997 20.47 11.5316 20.6337 11.4061C20.7975 11.2807 20.915 11.1048 20.9681 10.906C21.0211 10.7071 21.0067 10.4964 20.927 10.3066C20.8473 10.1168 20.7069 9.95848 20.5275 9.85632L13.965 6.1229ZM9.75 12.5332C9.50136 12.5332 9.2629 12.6315 9.08709 12.8065C8.91127 12.9816 8.8125 13.219 8.8125 13.4665V16.2666C8.8125 16.5141 8.91127 16.7515 9.08709 16.9266C9.2629 17.1016 9.50136 17.1999 9.75 17.1999C9.99864 17.1999 10.2371 17.1016 10.4129 16.9266C10.5887 16.7515 10.6875 16.5141 10.6875 16.2666V13.4665C10.6875 13.219 10.5887 12.9816 10.4129 12.8065C10.2371 12.6315 9.99864 12.5332 9.75 12.5332ZM12.5625 13.4665C12.5625 13.219 12.6613 12.9816 12.8371 12.8065C13.0129 12.6315 13.2514 12.5332 13.5 12.5332C13.7486 12.5332 13.9871 12.6315 14.1629 12.8065C14.3387 12.9816 14.4375 13.219 14.4375 13.4665V16.2666C14.4375 16.5141 14.3387 16.7515 14.1629 16.9266C13.9871 17.1016 13.7486 17.1999 13.5 17.1999C13.2514 17.1999 13.0129 17.1016 12.8371 16.9266C12.6613 16.7515 12.5625 16.5141 12.5625 16.2666V13.4665ZM17.25 12.5332C17.0014 12.5332 16.7629 12.6315 16.5871 12.8065C16.4113 12.9816 16.3125 13.219 16.3125 13.4665V16.2666C16.3125 16.5141 16.4113 16.7515 16.5871 16.9266C16.7629 17.1016 17.0014 17.1999 17.25 17.1999C17.4986 17.1999 17.7371 17.1016 17.9129 16.9266C18.0887 16.7515 18.1875 16.5141 18.1875 16.2666V13.4665C18.1875 13.219 18.0887 12.9816 17.9129 12.8065C17.7371 12.6315 17.4986 12.5332 17.25 12.5332Z" fill="#0038FF"/>
</svg>
