<svg width="27" height="27" viewBox="0 0 27 27" fill="none" xmlns="http://www.w3.org/2000/svg">
<rect width="27" height="27" rx="13.5" fill="black"/>
<path fill-rule="evenodd" clip-rule="evenodd" d="M16.5 10.5C16.5 12.1569 15.1569 13.5 13.5 13.5C11.8431 13.5 10.5 12.1569 10.5 10.5C10.5 8.84315 11.8431 7.5 13.5 7.5C15.1569 7.5 16.5 8.84315 16.5 10.5ZM13 16.5C13 18.1569 11.6569 19.5 10 19.5C8.34315 19.5 7 18.1569 7 16.5C7 14.8431 8.34315 13.5 10 13.5C11.6569 13.5 13 14.8431 13 16.5ZM17 19.5C18.6569 19.5 20 18.1569 20 16.5C20 14.8431 18.6569 13.5 17 13.5C15.3431 13.5 14 14.8431 14 16.5C14 18.1569 15.3431 19.5 17 19.5Z" fill="white"/>
</svg>
