<svg t="1652333247849" class="icon" viewBox="0 0 1024 1024" version="1.1" xmlns="http://www.w3.org/2000/svg" p-id="5565" width="200" height="200"><path d="M384 192h128v64h-128z m192 0h128v64h-128z m320 0v256h-192v-64h128V256h-64V192z m-576 192h128v64h-128z m192 0h128v64h-128zM192 256v128h64v64H128V192h192v64z m192 320h128v64h-128z m192 0h128v64h-128z m320 0v256h-192v-64h128v-128h-64v-64z m-576 192h128v64h-128z m192 0h128v64h-128zM192 640v128h64v64H128v-256h192v64zM960 64H64v896h896V64z m64-64v1024H0V0h1024z" p-id="5566"></path></svg>
